{
.appVersion = "3260";
.formatVersion = 3;
date = "2024-05-18 23:58:35 +0000";
familyName = "Augmented Norvrandt";
featurePrefixes = (
{
automatic = 1;
code = "languagesystem DFLT dflt;

languagesystem latn dflt;
languagesystem latn AZE;
languagesystem latn CRT;
languagesystem latn KAZ;
languagesystem latn TAT;
languagesystem latn TRK;
languagesystem latn ROM;
languagesystem latn MOL;
languagesystem latn MAH;
languagesystem latn NLD;
";
name = Languagesystems;
}
);
features = (
{
automatic = 1;
code = "feature locl;
feature lnum;
feature pnum;
feature tnum;
feature onum;
feature case;
feature salt;
";
tag = aalt;
},
{
automatic = 1;
code = "lookup ccmp_DFLT_1 {
	lookupflag 0;
	sub acutecomb macroncomb by acutecomb_macroncomb;
	sub brevecomb acutecomb by brevecomb_acutecomb;
	sub brevecomb gravecomb by brevecomb_gravecomb;
	sub brevecomb tildecomb by brevecomb_tildecomb;
	sub circumflexcomb acutecomb by circumflexcomb_acutecomb;
	sub circumflexcomb gravecomb by circumflexcomb_gravecomb;
	sub circumflexcomb tildecomb by circumflexcomb_tildecomb;
	sub dieresiscomb acutecomb by dieresiscomb_acutecomb;
	sub dieresiscomb macroncomb by dieresiscomb_macroncomb;
	sub gravecomb macroncomb by gravecomb_macroncomb;
	sub macroncomb acutecomb by macroncomb_acutecomb;
	sub macroncomb gravecomb by macroncomb_gravecomb;
	sub tildecomb acutecomb by tildecomb_acutecomb;
} ccmp_DFLT_1;

lookup ccmp_Other_1 {
	@CombiningTopAccents = [acutecomb brevecomb caroncomb circumflexcomb commaturnedabovecomb dieresiscomb dotaccentcomb gravecomb hungarumlautcomb macroncomb ringcomb tildecomb];
	lookupflag UseMarkFilteringSet @CombiningTopAccents;
	sub i' @CombiningTopAccents by idotless;
	sub j' @CombiningTopAccents by jdotless;
} ccmp_Other_1;
";
tag = ccmp;
},
{
automatic = 1;
code = "script latn;
language AZE;
lookup locl_latn_0 {
	sub i by idotaccent;
} locl_latn_0;
language CRT;
lookup locl_latn_0;
language KAZ;
lookup locl_latn_0;
language TAT;
lookup locl_latn_0;
language TRK;

glyphs = (
{
color = 7;
glyphname = A;
kernLeft = A;
kernRight = A;
lastChange = "2024-05-21 10:32:14 +0000";
layers = (
{
anchors = (
{
name = bottom;
pos = (345,0);
},
{
name = ogonek;
pos = (393,-4);
},
{
name = top;
pos = (473,640);
}
);
annotations = (
{
angle = 48.07746;
pos = (143.656,159.333);
type = Arrow;
}
);
backgroundImage = {
imagePath = "../reference/scan/N-A.jpg";
locked = 1;
pos = (-278,-765);
scale = (12,12);
};
layerId = m01;
shapes = (
{
closed = 1;
nodes = (
(199,380,o),
(178,332,o),
(38,23,c),
(100,106,l),
(182,236,o),
(273,466,o),
(303,599,c),
(276,607,l)
);
},
{
closed = 1;
nodes = (
(38,-3,o),
(84,50,o),
(102,67,cs),
(120,84,o),
(204,167,o),
(221,167,cs),
(238,167,o),
(372,-31,o),
(396,-31,cs),
(420,-31,o),
(628,160,o),
(628,178,c),
(518,119,l),
(518,106,o),
(475,81,o),
(468,81,cs),
(456,81,o),
(323,270,o),
(303,270,cs),
(283,270,o),
(116,127,o),
(100,115,cs),
(84,103,o),
(6,-3,o),
(21,-3,cs)
);
},
{
piece = {
Height = 25.6287;
"bottomSerif-sharpness" = 100;
};
pos = (518,142);
ref = _smart.vBar;
},
{
piece = {
Height = -65.625;
"bottomSerif-length" = -30;
"bottomSerif-sharpness" = 0;
"topSerif-flatness" = 0;
"topSerif-length" = 150;
"topSerif-sharpness" = 0;
};
pos = (306,330);
ref = _smart.vBar;
}
);
width = 650;
}
);
unicode = 65;
},
{
glyphname = AE;
kernLeft = A;
kernRight = RAB;
lastChange = "2024-05-21 10:31:50 +0000";
layers = (
{
layerId = m01;
shapes = (
{
closed = 1;
nodes = (
(200,380,o),
(179,332,o),
(39,23,c),
(101,106,l),
(183,236,o),
(274,466,o),
(304,599,c),
(277,607,l)
);
},
{
closed = 1;
nodes = (
(39,-3,o),
(85,50,o),
(103,67,cs),
(121,84,o),
(205,167,o),
(222,167,cs),
(239,167,o),
(373,-31,o),
(397,-31,cs),
(410,-31,o),
(503,42,o),
(562,103,cs),
(642,185,o),
(656,210,o),
(736,317,c),
(777,361,o),
(817,365,o),
(846,411,c),
(846,492,o),
(817,429,o),
(717,361,c),
(707,338,o),
(671,274,o),
(629,217,c),
(519,119,l),
(519,113,o),
(476,75,o),
(469,75,cs),
(457,75,o),
(324,270,o),
(304,270,cs),
(284,270,o),
(117,127,o),
(101,115,cs),
(85,103,o),
(7,-3,o),
(22,-3,cs)
);
},
{
piece = {
Height = 25.6287;
"bottomSerif-sharpness" = 100;
};
pos = (519,142);
ref = _smart.vBar;
},
{
piece = {
Height = -65.625;
"bottomSerif-length" = -30;
"bottomSerif-sharpness" = 0;
"topSerif-flatness" = 0;
"topSerif-length" = 150;
"topSerif-sharpness" = 0;
};
pos = (307,330);
ref = _smart.vBar;
},
{
alignment = -1;
piece = {
Height = 72.35577;
"bottomSerif-sharpness" = 0;
};
pos = (954,58);
ref = _smart.vBar;
},
{
alignment = -1;
piece = {
Width = 9.09091;
"leftSerif-sharpness" = 100;
};
pos = (797,20);
ref = _smart.hBar;
},
{
alignment = -1;
piece = {
Height = -26.92308;
"bottomSerif-length" = -30;
"topSerif-sharpness" = 100;
};
pos = (736,0);
ref = _smart.vBar;
}
);
width = 1090;
}
);
unicode = 198;
},
{
color = 7;
glyphname = B;
kernLeft = LAB_V;
kernRight = RAB;
lastChange = "2024-05-21 06:57:41 +0000";
layers = (
{
anchors = (
{
name = bottom;
pos = (317,0);
},
{
name = top;
pos = (329,640);
}
);
backgroundImage = {
imagePath = "../reference/scan/N-B.jpg";
locked = 1;
pos = (-246,-799);
scale = (12,12);
};
layerId = m01;
shapes = (
{
closed = 1;
nodes = (
(103,302,l),
(213,302,l),
(213,357,l),
(103,357,l)
);
},
{
piece = {
"bottomSerif-flatness" = 100;
};
pos = (103,0);
ref = _smart.vBar;
},
{
piece = {
Height = 78.87529;
"bottomSerif-sharpness" = 0;
};
pos = (463,44);
ref = _smart.vBar;
},
{
piece = {
Width = 59.47475;
"leftSerif-flatness" = 100;
"rightSerif-flatness" = 100;
};
pos = (157,318);
ref = _smart.hBar;
},
{
piece = {
Width = 85.35354;
"leftSerif-height" = 0;
"leftSerif-sharpness" = 0;
"rightSerif-flatness" = 0;
"rightSerif-length" = 0;
"rightSerif-sharpness" = 0;
};
pos = (76,0);
ref = _smart.hBar;
}
);
width = 600;
}
);
unicode = 66;
},
{
color = 7;
glyphname = C;
kernLeft = C;
kernRight = O;
lastChange = "2024-05-21 10:36:39 +0000";
layers = (
{
anchors = (
{
name = ogonek;
pos = (352,0);
},
{
name = top;
pos = (366,640);
}
);
backgroundImage = {
imagePath = "../reference/scan/N-C.jpg";
locked = 1;
pos = (-191,-802);
scale = (12,12);
};
hints = (
{
origin = (0,26);
target = (0,20);
type = Stem;
},
{
origin = (0,11);
target = (0,32);
type = Stem;
},
{
horizontal = 1;
origin = (0,18);
target = (0,20);
type = Stem;
},
{
horizontal = 1;
origin = (0,8);
target = (0,35);
type = Stem;
},
{
horizontal = 1;
origin = (0,29);
target = (0,14);
type = Stem;
}
);
layerId = m01;
shapes = (
{
closed = 1;
nodes = (
(68,603,o),
(108,607,o),
(108,556,cs),
(108,525,o),
(123,496,o),
(137,496,cs),
(166,496,o),
(179,626,o),
(333,626,cs),
(472,626,o),
(523,521,o),
(523,327,cs),
(523,131,o),
(471,16,o),
(352,16,cs),
(239,16,o),
(199,118,o),
(194,294,c),
(551,294,l),
(551,349,l),
(194,349,l),
(123,349,o),
(59,357,o),
(50,347,cs),
(41,337,o),
(81,304,o),
(81,219,cs),
(81,81,o),
(188,-37,o),
(352,-37,cs),
(526,-37,o),
(642,95,o),
(642,326,cs),
(642,557,o),
(526,679,o),
(393,679,cs),
(331,679,o),
(256,652,o),
(223,630,c),
(223,665,o),
(217,702,o),
(209,702,cs),
(201,702,o),
(68,625,o),
(68,615,cs)
);
}
);
width = 680;
}
);
unicode = 67;
},
{
color = 7;
glyphname = D;
kernLeft = D;
kernRight = RAB;
lastChange = "2024-05-21 10:36:48 +0000";
layers = (
{
anchors = (
{
name = bottom;
pos = (350,0);
},
{
name = top;
pos = (408,640);
}
);
annotations = (
{
pos = (191,278);
type = Arrow;
},
{
pos = (261,288);
text = inktrap;
type = Text;
}
);
backgroundImage = {
imagePath = "../reference/scan/N-D.jpg";
locked = 1;
pos = (-148,-783);
scale = (12,12);
};
hints = (
{
origin = (0,9);
target = (0,35);
type = Stem;
},
{
origin = (0,19);
target = (0,28);
type = Stem;
}
);
layerId = m01;
shapes = (
{
closed = 1;
nodes = (
(297,689,o),
(294,710,o),
(288,713,cs),
(280,717,o),
(141,633,o),
(141,623,cs),
(141,611,o),
(187,629,o),
(187,570,cs),
(187,336,ls),
(187,318,o),
(188,295,o),
(164,279,cs),
(148,268,o),
(43,217,o),
(43,209,cs),
(43,197,o),
(89,215,o),
(89,156,cs),
(89,-4,ls),
(89,-20,o),
(72,-40,o),
(81,-40,cs),
(88,-40,o),
(199,5,o),
(199,32,cs),
(199,109,o),
(199,173,o),
(199,250,cs),
(199,261,o),
(192,278,o),
(187,281,c),
(234,305,o),
(297,337,o),
(297,369,cs),
(297,678,ls)
);
},
{
piece = {
Width = 35.87879;
"leftSerif-flatness" = 0;
"leftSerif-sharpness" = 100;
"rightSerif-length" = 3;
"rightSerif-sharpness" = 0;
};
pos = (150,17);
ref = _smart.hBar;
},
{
piece = {
Width = 44.66667;
"leftSerif-flatness" = 100;
"rightSerif-flatness" = 100;
};
pos = (259,617);
ref = _smart.hBar;
},
{
piece = {
"bottomSerif-length" = -30;
};
pos = (507,0);
ref = _smart.vBar;
}
);
width = 640;
},
{
associatedMasterId = m01;
backgroundImage = {
imagePath = "../reference/scan/N-D.jpg";
locked = 1;
pos = (-178,-783);
scale = (12,12);
};
layerId = "595EC5F9-C8FB-4072-AE4A-86C3A46B7968";
name = before;
shapes = (
{
piece = {
Width = 35.87879;
"leftSerif-flatness" = 0;
"leftSerif-sharpness" = 100;
"rightSerif-length" = 3;
"rightSerif-sharpness" = 0;
};
pos = (125,17);
ref = _smart.hBar;
},
{
piece = {
Width = 44.66667;
"leftSerif-flatness" = 100;
"rightSerif-flatness" = 100;
};
pos = (234,617);
ref = _smart.hBar;
},
{
piece = {
"bottomSerif-length" = -30;
};
pos = (482,0);
ref = _smart.vBar;
},
{
closed = 1;
nodes = (
(246,622,l),
(255,622,l),
(255,633,l),
(246,633,l)
);
},
{
closed = 1;
nodes = (
(272,689,o),
(269,710,o),
(263,713,cs),
(255,717,o),
(116,633,o),
(116,623,cs),
(116,611,o),
(162,629,o),
(162,570,cs),
(162,336,l),
(162,280,o),
(71,247,o),
(96,247,cs),
(107,247,o),
(272,312,o),
(272,369,c),
(272,678,ls)
);
},
{
closed = 1;
nodes = (
(174,275,o),
(171,296,o),
(165,299,cs),
(157,303,o),
(18,219,o),
(18,209,cs),
(18,197,o),
(64,215,o),
(64,156,cs),
(64,-4,l),
(64,-20,o),
(47,-40,o),
(56,-40,cs),
(63,-40,o),
(174,5,o),
(174,32,c),
(174,264,ls)
);
}
);
width = 610;
}
);
unicode = 68;
},
{
color = 7;
glyphname = E;
kernLeft = E;
kernRight = RAB;
lastChange = "2024-05-21 10:37:24 +0000";
layers = (
{
anchors = (
{
name = ogonek;
pos = (504,36);
},
{
name = top;
pos = (368,630);
}
);
backgroundImage = {
imagePath = "../reference/scan/N-E.jpg";
locked = 1;
pos = (-119,-783);
scale = (12,12);
};
layerId = m01;
shapes = (
{
closed = 1;
nodes = (
(256,328,o),
(188,239,o),
(126,154,cs),
(114,138,o),
(72,136,o),
(72,118,cs),
(72,84,o),
(59,72,o),
(67,72,cs),
(82,72,o),
(176,138,o),
(182,149,cs),
(236,249,o),
(265,285,o),
(289,317,c),
(330,361,o),
(370,365,o),
(399,411,c),
(399,492,o),
(370,429,o),
(270,361,c)
);
},
{
piece = {
Height = 72.35577;
"bottomSerif-sharpness" = 0;
};
pos = (507,58);
ref = _smart.vBar;
},
{
piece = {
Height = 45.36713;
"bottomSerif-sharpness" = 100;
};
pos = (72,114);
ref = _smart.vBar;
},
{
piece = {
Width = 9.09091;
"leftSerif-sharpness" = 100;
};
pos = (350,20);
ref = _smart.hBar;
},
{
piece = {
Height = -26.92308;
"bottomSerif-length" = -30;
"topSerif-sharpness" = 100;
};
pos = (289,0);
ref = _smart.vBar;
}
);
width = 640;
}
);
unicode = 69;
},
{
color = 7;
glyphname = F;
kernLeft = F;
kernRight = F;
lastChange = "2024-05-21 10:37:38 +0000";
layers = (
{
backgroundImage = {
imagePath = "../reference/scan/N-F.jpg";
locked = 1;
pos = (-83,-800);
scale = (12,12);
};
layerId = m01;
shapes = (
{
closed = 1;
nodes = (
(149,667,o),
(27,597,o),
(27,584,cs),
(27,570,o),
(232,473,o),
(232,369,cs),
(232,273,o),
(55,250,o),
(55,238,cs),
(55,217,o),
(176,158,o),
(192,158,cs),
(215,158,o),
(292,297,o),
(292,387,cs),
(292,498,o),
(176,667,o),
(164,667,cs)
);
},
{
piece = {
Height = -83.68298;
"bottomSerif-length" = -20;
"bottomSerif-sharpness" = 0;
};
pos = (465,376);
ref = _smart.vBar;
},
{
piece = {
Width = 33.69697;
"leftSerif-sharpness" = 100;
"rightSerif-length" = 100;
};
pos = (164,0);
ref = _smart.hBar;
},
{
piece = {
Height = -80.47785;
"bottomSerif-length" = -40;
"bottomSerif-sharpness" = 0;
"topSerif-length" = 100;
"topSerif-sharpness" = 100;
};
pos = (94,-11);
ref = _smart.vBar;
},
{
piece = {
Width = 73.73737;
"leftSerif-flatness" = 100;
"rightSerif-flatness" = 100;
};
pos = (152,603);
ref = _smart.hBar;
}
);
width = 640;
}
);
unicode = 70;
},
{
color = 7;
glyphname = G;
kernLeft = O;
kernRight = RCB;
lastChange = "2024-05-21 06:47:15 +0000";
layers = (
{
anchors = (
{
name = bottom;
pos = (384,0);
},
{
name = top;
pos = (391,697);
}
);
backgroundImage = {
imagePath = "../reference/scan/N-G.jpg";
locked = 1;
pos = (-267,-821);
scale = (12,12);
};
hints = (
{
origin = (0,2);
target = (0,11);
type = Stem;
},
{
horizontal = 1;
origin = (0,14);
target = (0,17);
type = Stem;
},
{
horizontal = 1;
origin = (0,16);
target = (0,17);
type = Stem;
},
{
horizontal = 1;
origin = (0,5);
target = (0,8);
type = Stem;
}
);
layerId = m01;
shapes = (
{
closed = 1;
nodes = (
(345,705,o),
(38,590,o),
(38,324,cs),
(38,103,o),
(286,-13,o),
(321,-13,cs),
(332,-13,o),
(428,49,o),
(428,57,cs),
(428,72,o),
(154,153,o),
(154,382,cs),
(154,570,o),
(349,656,o),
(391,678,cs),
(428,697,o),
(428,705,o),
(412,705,cs)
);
},
{
piece = {
Height = -27.40385;
"bottomSerif-sharpness" = 100;
};
pos = (318,22);
ref = _smart.vBar;
},
{
closed = 1;
nodes = (
(592,595,o),
(475,516,o),
(414,472,c),
(358,448,o),
(272,390,o),
(272,379,c),
(325,379,l),
(442,463,o),
(515,532,o),
(515,452,cs),
(515,404,o),
(625,506,o),
(625,539,cs),
(625,572,o),
(627,595,o),
(616,595,cs)
);
},
{
piece = {
Height = 42.78846;
"bottomSerif-length" = -40;
"topSerif-sharpness" = 100;
};
pos = (515,-8);
ref = _smart.vBar;
}
);
width = 650;
}
);
unicode = 71;
},
{
color = 7;
glyphname = H;
kernLeft = LAB;
kernRight = H;
lastChange = "2024-05-21 10:38:29 +0000";
layers = (
{
anchors = (
{
name = bottom;
pos = (306,0);
},
{
name = top;
pos = (336,640);
}
);
backgroundImage = {
imagePath = "../reference/scan/N-H.jpg";
locked = 1;
pos = (-261,-816);
scale = (12,12);
};
hints = (
{
origin = (0,22);
target = (0,12);
type = Stem;
},
{
origin = (0,8);
target = (0,28);
type = Stem;
},
{
horizontal = 1;
origin = (0,8);
target = (0,6);
type = Stem;
}
);
layerId = m01;
shapes = (
{
closed = 1;
nodes = (
(605,597,o),
(605,659,o),
(605,665,cs),
(605,687,o),
(526,652,o),
(478,652,cs),
(137,652,l),
(137,597,l),
(495,597,l),
(495,438,o),
(505,274,o),
(385,154,c),
(385,435,ls),
(385,446,o),
(382,467,o),
(376,470,cs),
(368,474,o),
(229,390,o),
(229,380,cs),
(229,368,o),
(275,386,o),
(275,327,cs),
(275,99,ls),
(275,54,o),
(262,25,o),
(270,25,cs),
(305,25,o),
(605,176,o),
(605,546,cs)
);
},
{
piece = {
"bottomSerif-length" = -40;
};
pos = (68,0);
ref = _smart.vBar;
}
);
width = 630;
}
);
unicode = 72;
},
{
color = 7;
glyphname = I;
kernLeft = I;
kernRight = I;
lastChange = "2024-05-21 10:38:42 +0000";
layers = (
{
anchors = (
{
name = bottom;
pos = (336,0);
},
{
name = ogonek;
pos = (440,12);
},
{
name = top;
pos = (365,629);
}
);
backgroundImage = {
imagePath = "../reference/scan/N-I.jpg";
locked = 1;
pos = (-229,-829);
scale = (12,12);
};
layerId = m01;
shapes = (
{
piece = {
Width = 53.53535;
"leftSerif-sharpness" = 100;
"rightSerif-length" = 71.35416;
};
pos = (128,0);
ref = _smart.hBar;
},
{
piece = {
Height = 88.41783;
"bottomSerif-length" = -5.76613;
};
pos = (301,9);
ref = _smart.vBar;
},
{
piece = {
Height = -49.51923;
"bottomSerif-length" = -40;
};
pos = (74,-12);
ref = _smart.vBar;
},
{
closed = 1;
nodes = (
(342,201,l),
(352,201,l),
(352,210,l),
(342,210,l)
);
}
);
width = 620;
}
);
unicode = 73;
},
{
glyphname = IJ;
kernLeft = I;
kernRight = RCB;
lastChange = "2024-05-21 10:38:45 +0000";
layers = (
{
anchors = (
{
name = bottom;
pos = (336,0);
},
{
name = ogonek;
pos = (440,12);
},
{
name = top;
pos = (365,629);
}
);
associatedMasterId = m01;
hints = (
{
origin = (4,3);
target = (4,13);
type = Stem;
},
{
origin = (4,22);
target = (4,32);
type = Stem;
}
);
layerId = "13B53352-734B-4C5E-B5F3-C7B139705C6B";
name = ref;
shapes = (
{
piece = {
Width = 53.53535;
"leftSerif-sharpness" = 100;
"rightSerif-length" = 71.35416;
};
pos = (128,0);
ref = _smart.hBar;
},
{
piece = {
Height = 88.41783;
"bottomSerif-length" = -5.76613;
};
pos = (301,9);
ref = _smart.vBar;
},
{
piece = {
Height = -49.51923;
"bottomSerif-length" = -40;
};
pos = (74,-12);
ref = _smart.vBar;
},
{
alignment = -1;
piece = {
Width = 84.87878;
"leftSerif-flatness" = 20;
"leftSerif-height" = 0;
"leftSerif-sharpness" = 80;
"rightSerif-flatness" = 100;
"rightSerif-length" = 0;
"rightSerif-sharpness" = 0;
};
pos = (595,-5);
ref = _smart.hBar;
},
{
closed = 1;
nodes = (
(518,488,o),
(564,506,o),
(564,447,cs),
(564,345,ls),
(564,262,o),
(533,143,o),
(506,91,cs),
(502,84,o),
(508,82,o),
(513,88,cs),
(582,168,o),
(674,318,o),
(674,358,cs),
(674,518,ls),
(674,524,o),
(672,560,o),
(672,578,c),
(716,600,o),
(731,596,o),
(731,451,cs),
(731,451,o),
(731,369,o),
(731,278,cs),
(731,205,o),
(554,-6,o),
(536,-30,cs),
(525,-45,o),
(533,-45,o),
(542,-39,cs),
(603,0,o),
(841,199,o),
(841,300,cs),
(841,650,ls),
(841,661,o),
(838,682,o),
(832,685,cs),
(813,693,o),
(740,640,o),
(648,581,c),
(619,571,o),
(518,510,o),
(518,500,cs)
);
},
{
alignment = -1;
piece = {
Height = 65.70513;
"bottomSerif-length" = -40;
};
pos = (956,-21);
ref = _smart.vBar;
}
);
width = 1220;
},
{
hints = (
{
origin = (0,37);
target = (0,9);
type = Stem;
},
{
origin = (0,14);
target = (0,24);
type = Stem;
},
{
horizontal = 1;
origin = (0,2);
target = (0,44);
type = Stem;
}
);
layerId = m01;
name = Regular;
shapes = (
{
closed = 1;
nodes = (
(150,39,l),
(79,-16,l),
(463,-16,ls),
(478,-16,o),
(525,65,o),
(566,133,cs),
(617,217,o),
(674,327,o),
(674,358,cs),
(674,518,l),
(672,578,l),
(716,600,o),
(731,596,o),
(731,451,cs),
(731,278,ls),
(731,205,o),
(554,-6,o),
(536,-30,cs),
(525,-45,o),
(533,-45,o),
(542,-39,cs),
(603,0,o),
(841,199,o),
(841,300,cs),
(841,650,ls),
(841,661,o),
(838,682,o),
(832,685,cs),
(813,693,o),
(740,640,o),
(648,581,c),
(619,571,o),
(518,510,o),
(518,500,cs),
(518,488,o),
(564,506,o),
(564,447,cs),
(564,345,ls),
(564,287,o),
(564,198,o),
(536,144,cs),
(506,86,o),
(441,39,o),
(406,39,cs),
(174,39,l)
);
},
{
piece = {
Height = 88.41783;
"bottomSerif-length" = -5.76613;
};
pos = (301,9);
ref = _smart.vBar;
},
{
piece = {
Height = -49.51923;
"bottomSerif-length" = -40;
};
pos = (74,-12);
ref = _smart.vBar;
},
{
alignment = -1;
piece = {
Width = 84.87878;
"leftSerif-flatness" = 20;
"leftSerif-height" = 0;
"leftSerif-sharpness" = 80;
"rightSerif-flatness" = 100;
"rightSerif-length" = 0;
"rightSerif-sharpness" = 0;
};
pos = (595,-5);
ref = _smart.hBar;
},
{
alignment = -1;
piece = {
Height = 65.70513;
"bottomSerif-length" = -40;
};
pos = (956,-21);
ref = _smart.vBar;
}
);
visible = 1;
width = 1090;
}
);
unicode = 306;
},
{
color = 7;
glyphname = J;
kernLeft = J;
kernRight = RCB;
lastChange = "2024-05-21 10:39:08 +0000";
layers = (
{
anchors = (
{
name = top;
pos = (339,640);
}
);
backgroundImage = {
imagePath = "../reference/scan/N-J.jpg";
locked = 1;
pos = (-167,-832);
scale = (12,12);
};
hints = (
{
origin = (1,3);
target = (1,13);
type = Stem;
},
{
origin = (1,22);
target = (1,32);
type = Stem;
}
);
layerId = m01;
shapes = (
{
piece = {
Width = 84.87878;
"leftSerif-flatness" = 20;
"leftSerif-height" = 0;
"leftSerif-sharpness" = 80;
"rightSerif-flatness" = 100;
"rightSerif-length" = 0;
"rightSerif-sharpness" = 0;
};
pos = (121,-5);
ref = _smart.hBar;
},
{
closed = 1;
nodes = (
(44,488,o),
(90,506,o),
(90,447,cs),
(90,345,ls),
(90,262,o),
(59,143,o),
(32,91,cs),
(28,84,o),
(34,82,o),
(39,88,cs),
(108,168,o),
(200,318,o),
(200,358,cs),
(200,518,ls),
(200,524,o),
(198,560,o),
(198,578,c),
(242,600,o),
(257,596,o),
(257,451,cs),
(257,451,o),
(257,369,o),
(257,278,cs),
(257,205,o),
(80,-6,o),
(62,-30,cs),
(51,-45,o),
(59,-45,o),
(68,-39,cs),
(129,0,o),
(367,199,o),
(367,300,cs),
(367,650,ls),
(367,661,o),
(364,682,o),
(358,685,cs),
(339,693,o),
(266,640,o),
(174,581,c),
(145,571,o),
(44,510,o),
(44,500,cs)
);
},
{
piece = {
Height = 65.70513;
"bottomSerif-length" = -40;
};
pos = (482,-21);
ref = _smart.vBar;
}
);
width = 620;
}
);
unicode = 74;
},
{
color = 7;
glyphname = K;
kernLeft = K;
kernRight = RT;
lastChange = "2024-05-21 10:39:21 +0000";
layers = (
{
anchors = (
{
name = bottom;
pos = (294,0);
}
);
backgroundImage = {
imagePath = "../reference/scan/N-K.jpg";
locked = 1;
pos = (-135,-816);
scale = (12,12);
};
layerId = m01;
shapes = (
{
piece = {
"bottomSerif-length" = 0;
"bottomSerif-sharpness" = 100;
};
pos = (439,0);
ref = _smart.vBar;
},
{
piece = {
Width = 61.09091;
"leftSerif-height" = 100;
"leftSerif-sharpness" = 0;
"rightSerif-flatness" = 100;
};
pos = (165,616);
ref = _smart.hBar;
},
{
piece = {
Height = -47.11538;
"bottomSerif-length" = 79.02142;
"topSerif-sharpness" = 100;
};
pos = (79,77);
ref = _smart.vBar;
},
{
closed = 1;
nodes = (
(418,536,o),
(79,455,o),
(79,410,cs),
(79,355,l),
(115,371,o),
(189,347,o),
(189,373,cs),
(189,433,o),
(418,495,o),
(454,495,c),
(454,536,l)
);
},
{
pos = (439,0);
ref = _part.tick;
}
);
width = 645;
}
);
unicode = 75;
},
{
color = 7;
glyphname = L;
kernLeft = LAB;
kernRight = RT;
lastChange = "2024-05-21 06:22:44 +0000";
layers = (
{
anchors = (
{
name = bottom;
pos = (222,0);
},
{
name = top;
pos = (232,650);
}
);
backgroundImage = {
imagePath = "../reference/scan/N-L.jpg";
locked = 1;
pos = (-206,-826);
scale = (12,12);
};
layerId = m01;
shapes = (
{
closed = 1;
nodes = (
(108,470,l),
(140,470,l),
(140,520,l),
(108,520,l)
);
},
{
piece = {
"bottomSerif-sharpness" = 100;
};
pos = (70,0);
ref = _smart.vBar;
},
{
piece = {
"bottomSerif-sharpness" = 100;
};
pos = (264,0);
ref = _smart.vBar;
},
{
piece = {
tail = 25.91947;
};
pos = (70,0);
ref = _part.tick;
},
{
pos = (264,0);
ref = _part.tick;
}
);
width = 470;
}
);
unicode = 76;
},
{
glyphname = Lslash;
kernLeft = LAB;
kernRight = RT;
lastChange = "2024-05-21 10:39:41 +0000";
layers = (
{
layerId = m01;
shapes = (
{
ref = L;
},
{
closed = 1;
nodes = (
(125,346,l),
(92,331,o),
(28,303,o),
(25,300,cs),
(19,293,o),
(17,242,o),
(25,242,cs),
(31,242,o),
(92,273,o),
(125,288,c)
);
},
{
closed = 1;
nodes = (
(321,443,l),
(125,353,l),
(125,295,l),
(321,385,l)
);
},
{
closed = 1;
nodes = (
(321,392,l),
(357,408,o),
(426,435,o),
(430,441,cs),
(434,447,o),
(436,499,o),
(430,499,cs),
(424,499,o),
(357,466,o),
(321,450,c)
);
}
);
width = 470;
}
);
unicode = 321;
},
{
color = 7;
glyphname = M;
kernLeft = LAB;
kernRight = RCB;
lastChange = "2024-05-21 07:02:09 +0000";
layers = (
{
anchors = (
{
name = bottom;
pos = (326,0);
},
{
name = top;
pos = (358,572);
}
);
backgroundImage = {
imagePath = "../reference/scan/N-M.jpg";
locked = 1;
pos = (-293,-854);
scale = (12,12);
};
layerId = m01;
shapes = (
{
piece = {
Width = 88.66666;
"leftSerif-flatness" = 100;
"leftSerif-sharpness" = 0;
"rightSerif-flatness" = 100;
};
pos = (90,0);
ref = _smart.hBar;
},
{
piece = {
Height = -38.94231;
"bottomSerif-length" = 48.75901;
};
pos = (298,64);
ref = _smart.vBar;
},
{
closed = 1;
nodes = (
(575,614,o),
(436,529,o),
(392,494,c),
(324,455,o),
(252,408,o),
(252,398,c),
(385,472,l),
(392,480,o),
(483,543,o),
(483,464,cs),
(483,416,o),
(593,525,o),
(593,558,cs),
(593,591,o),
(590,614,o),
(584,614,cs)
);
},
{
piece = {
"bottomSerif-length" = -40;
};
pos = (72,0);
ref = _smart.vBar;
},
{
piece = {
Height = 43.58974;
"bottomSerif-length" = -40;
"topSerif-sharpness" = 100;
};
pos = (483,0);
ref = _smart.vBar;
}
);
width = 620;
}
);
unicode = 77;
},
{
color = 7;
glyphname = N;
kernLeft = LAB;
kernRight = RAB;
lastChange = "2024-05-21 06:27:46 +0000";
layers = (
{
anchors = (
{
name = bottom;
pos = (318,0);
},
{
name = top;
pos = (348,627);
}
);
backgroundImage = {
imagePath = "../reference/scan/N-N.jpg";
locked = 1;
pos = (-253,-870);
scale = (12,12);
};
layerId = m01;
shapes = (
{
closed = 1;
nodes = (
(368,441,o),
(274,313,o),
(167,122,c),
(72,42,l),
(72,8,o),
(59,-11,o),
(68,-11,cs),
(80,-11,o),
(158,32,o),
(182,70,cs),
(306,263,o),
(407,411,o),
(503,538,c),
(497,608,l)
);
},
{
piece = {
Height = 82.69231;
};
pos = (495,36);
ref = _smart.vBar;
},
{
piece = {
Width = 27.15152;
"leftSerif-height" = 100;
};
pos = (287,0);
ref = _smart.hBar;
},
{
piece = {
Height = 83.17308;
"bottomSerif-sharpness" = 100;
};
pos = (72,35);
ref = _smart.vBar;
}
);
width = 630;
}
);
unicode = 78;
},
{
color = 7;
glyphname = O;
kernLeft = O;
kernRight = O;
lastChange = "2024-05-21 07:04:40 +0000";
layers = (
{
anchors = (
{
name = bottom;
pos = (326,-18);
},
{
name = top;
pos = (326,640);
}
);
backgroundImage = {
imagePath = "../reference/scan/N-O.jpg";
locked = 1;
pos = (-221,-874);
scale = (12,12);
};
hints = (
{
origin = (0,8);
target = (1,2);
type = Stem;
},
{
origin = (1,8);
target = (0,2);
type = Stem;
},
{
horizontal = 1;
origin = (1,5);
target = (0,5);
type = Stem;
},
{
horizontal = 1;
origin = (0,11);
target = (1,11);
type = Stem;
}
);
layerId = m01;
shapes = (
{
closed = 1;
nodes = (
(503,-37,o),
(619,95,o),
(619,326,cs),
(619,557,o),
(503,689,o),
(326,689,cs),
(149,689,o),
(33,557,o),
(33,326,cs),
(33,95,o),
(149,-37,o),
(326,-37,cs)
);
},
{
closed = 1;
nodes = (
(204,16,o),
(152,131,o),
(152,326,cs),
(152,521,o),
(204,636,o),
(326,636,cs),
(448,636,o),
(500,521,o),
(500,326,cs),
(500,131,o),
(448,16,o),
(326,16,cs)
);
},
{
piece = {
Width = 80.66666;
"leftSerif-flatness" = 100;
"rightSerif-flatness" = 100;
};
pos = (131,296);
ref = _smart.hBar;
}
);
width = 650;
}
);
unicode = 79;
},
{
glyphname = Oslash;
kernLeft = O;
kernRight = O;
lastChange = "2024-05-21 10:40:18 +0000";
layers = (
{
layerId = m01;
shapes = (
{
ref = O;
},
{
closed = 1;
nodes = (
(349,305,l),
(535,720,ls),
(541,734,o),
(466,724,o),
(464,720,cs),
(286,305,l)
);
},
{
closed = 1;
nodes = (
(283,305,l),
(108,-84,ls),
(102,-98,o),
(179,-87,o),
(180,-84,cs),
(346,305,l)
);
}
);
width = 650;
}
);
unicode = 216;
},
{
glyphname = OE;
kernLeft = O;
kernRight = RAB;
lastChange = "2024-05-21 06:05:16 +0000";
layers = (
{
hints = (
{
origin = (0,22);
target = (1,2);
type = Stem;
},
{
origin = (1,8);
target = (3,5);
type = Stem;
},
{
horizontal = 1;
origin = (1,5);
target = (0,19);
type = Stem;
},
{
horizontal = 1;
origin = (0,25);
target = (1,11);
type = Stem;
},
{
origin = (0,3);
target = (0,6);
type = Stem;
}
);
layerId = m01;
shapes = (
{
closed = 1;
nodes = (
(470,-37,o),
(601,85,o),
(613,239,c),
(613,114,l),
(613,79,l),
(723,149,l),
(723,678,ls),
(723,689,o),
(720,710,o),
(714,713,cs),
(707,716,o),
(600,649,o),
(600,634,cs),
(600,625,o),
(613,627,o),
(613,570,cs),
(613,384,l),
(608,579,o),
(470,689,o),
(328,689,cs),
(151,689,o),
(35,557,o),
(35,326,cs),
(35,95,o),
(151,-37,o),
(328,-37,cs)
);
},
{
closed = 1;
nodes = (
(206,16,o),
(154,131,o),
(154,326,cs),
(154,521,o),
(206,636,o),
(328,636,cs),
(450,636,o),
(502,521,o),
(502,326,cs),
(502,131,o),
(450,16,o),
(328,16,cs)
);
},
{
piece = {
Width = 80.66666;
"leftSerif-flatness" = 100;
"rightSerif-flatness" = 100;
};
pos = (133,296);
ref = _smart.hBar;
},
{
closed = 1;
nodes = (
(772,328,o),
(729,239,o),
(667,154,cs),
(655,138,o),
(613,136,o),
(613,118,cs),
(613,84,o),
(600,72,o),
(608,72,cs),
(623,72,o),
(717,138,o),
(723,149,cs),
(777,249,o),
(781,285,o),
(805,317,c),
(846,361,o),
(886,365,o),
(915,411,c),
(915,492,o),
(886,429,o),
(786,361,c)
);
},
{
alignment = -1;
piece = {
Height = 72.35577;
"bottomSerif-sharpness" = 0;
};
pos = (1003,58);
ref = _smart.vBar;
},
{
alignment = -1;
piece = {
Width = 9.09091;
"leftSerif-flatness" = 100;
"leftSerif-sharpness" = 0;
};
pos = (846,20);
ref = _smart.hBar;
},
{
alignment = -1;
piece = {
Height = -26.92308;
"bottomSerif-length" = -30;
"topSerif-sharpness" = 100;
};
pos = (805,0);
ref = _smart.vBar;
}
);
width = 1140;
},
{
anchors = (
{
name = bottom;
pos = (661,114);
},
{
name = "bottomSerif-length";
pos = (606,73);
},
{
name = top;
pos = (902,630);
},
{
name = topSerif;
pos = (590,623.364);
}
);
associatedMasterId = m01;
hints = (
{
origin = (0,8);
target = (1,2);
type = Stem;
},
{
origin = (1,8);
target = (3,5);
type = Stem;
},
{
horizontal = 1;
origin = (1,5);
target = (0,5);
type = Stem;
},
{
horizontal = 1;
origin = (0,11);
target = (1,11);
type = Stem;
},
{
origin = (5,9);
target = (5,16);
type = Stem;
}
);
layerId = "9230D696-BA2D-4E7F-BAC1-5260EA0E55CE";
name = ref;
shapes = (
{
closed = 1;
nodes = (
(503,-37,o),
(619,95,o),
(619,326,cs),
(619,557,o),
(503,689,o),
(326,689,cs),
(149,689,o),
(33,557,o),
(33,326,cs),
(33,95,o),
(149,-37,o),
(326,-37,cs)
);
},
{
closed = 1;
nodes = (
(204,16,o),
(152,131,o),
(152,326,cs),
(152,521,o),
(204,636,o),
(326,636,cs),
(448,636,o),
(500,521,o),
(500,326,cs),
(500,131,o),
(448,16,o),
(326,16,cs)
);
},
{
piece = {
Width = 80.66666;
"leftSerif-flatness" = 100;
"rightSerif-flatness" = 100;
};
pos = (131,296);
ref = _smart.hBar;
},
{
closed = 1;
nodes = (
(790,328,o),
(722,239,o),
(660,154,cs),
(648,138,o),
(606,136,o),
(606,118,cs),
(606,84,o),
(593,72,o),
(601,72,cs),
(616,72,o),
(710,138,o),
(716,149,cs),
(770,249,o),
(799,285,o),
(823,317,c),
(864,361,o),
(904,365,o),
(933,411,c),
(933,492,o),
(904,429,o),
(804,361,c)
);
},
{
alignment = -1;
piece = {
Height = 72.35577;
"bottomSerif-sharpness" = 0;
};
pos = (1041,58);
ref = _smart.vBar;
},
{
closed = 1;
nodes = (
(716,689,o),
(713,710,o),
(707,713,cs),
(699,717,o),
(580,633,o),
(580,623,cs),
(580,616,o),
(606,625,o),
(606,570,cs),
(606,114,l),
(606,111,o),
(606,79,o),
(606,79,cs),
(606,79,o),
(716,149,o),
(716,149,c),
(716,678,ls)
);
},
{
alignment = -1;
piece = {
Width = 9.09091;
"leftSerif-sharpness" = 100;
};
pos = (884,20);
ref = _smart.hBar;
},
{
alignment = -1;
piece = {
Height = -26.92308;
"bottomSerif-length" = -30;
"topSerif-sharpness" = 100;
};
pos = (823,0);
ref = _smart.vBar;
}
);
width = 1290;
}
);
unicode = 338;
},
{
color = 7;
glyphname = P;
kernLeft = LAB;
kernRight = P;
lastChange = "2024-05-21 11:11:51 +0000";
layers = (
{
anchors = (
{
name = tail;
pos = (530,693);
}
);
backgroundImage = {
imagePath = "../reference/scan/N-P.jpg";
locked = 1;
pos = (-187,-861);
scale = (12,12);
};
hints = (
{
horizontal = 1;
origin = (0,14);
target = (0,7);
type = Stem;
},
{
origin = (0,4);
target = (0,17);
type = Stem;
}
);
layerId = m01;
shapes = (
{
closed = 1;
nodes = (
(343,574,o),
(343,560,cs),
(343,540,o),
(509,415,o),
(509,322,cs),
(509,259,o),
(456,224,o),
(412,224,cs),
(301,224,o),
(181,273,o),
(181,329,c),
(116,234,l),
(110,191,o),
(260,160,o),
(379,160,cs),
(458,160,o),
(601,287,o),
(601,372,cs),
(601,428,o),
(510,580,o),
(462,611,c),
(476,620,o),
(526,658,o),
(545,689,cs),
(554,704,o),
(549,709,o),
(534,697,cs),
(467,645,o)
);
},
{
piece = {
"bottomSerif-length" = -20;
};
pos = (71,0);
ref = _smart.vBar;
},
{
piece = {
Width = 85.94949;
"leftSerif-sharpness" = 100;
"rightSerif-length" = 3;
};
pos = (130,0);
ref = _smart.hBar;
}
);
width = 620;
}
);
unicode = 80;
},
{
color = 7;
glyphname = Q;
kernLeft = Q;
kernRight = RAB;
lastChange = "2024-05-21 11:11:54 +0000";
layers = (
{
backgroundImage = {
imagePath = "../reference/scan/N-Q.jpg";
locked = 1;
pos = (-108,-861);
scale = (12,12);
};
hints = (
{
origin = (0,5);
target = (0,18);
type = Stem;
},
{
horizontal = 1;
origin = (0,8);
target = (0,15);
type = Stem;
}
);
layerId = m01;
shapes = (
{
closed = 1;
nodes = (
(42,552,o),
(117,482,o),
(165,442,c),
(110,377,o),
(60,302,o),
(60,228,cs),
(60,113,o),
(182,11,o),
(307,11,cs),
(420,11,o),
(535,95,o),
(543,114,c),
(505,165,l),
(505,101,o),
(422,81,o),
(368,81,cs),
(261,81,o),
(176,158,o),
(176,292,cs),
(176,449,o),
(293,473,o),
(293,486,cs),
(293,504,o),
(123,592,o),
(168,644,c),
(143,644,o),
(42,573,o),
(42,561,cs)
);
},
{
piece = {
Width = 82;
"leftSerif-sharpness" = 100;
"rightSerif-sharpness" = 100;
};
pos = (146,605);
ref = _smart.hBar;
},
{
piece = {
"bottomSerif-length" = -30;
};
pos = (505,0);
ref = _smart.vBar;
}
);
width = 640;
}
);
unicode = 81;
},
{
color = 7;
glyphname = R;
kernLeft = R;
kernRight = R;
lastChange = "2024-05-21 10:40:31 +0000";
layers = (
{
anchors = (
{
name = bottom;
pos = (314,0);
},
{
name = top;
pos = (324,640);
}
);
annotations = (
{
angle = 66.31697;
pos = (462,316);
type = Arrow;
},
{
pos = (476.656,354.667);
text = inktrap;
type = Text;
}
);
backgroundImage = {
imagePath = "../reference/scan/N-R.jpg";
locked = 1;
pos = (-123,-875);
scale = (12,12);
};
hints = (
{
origin = (0,6);
target = (0,13);
type = Stem;
},
{
origin = (2,3);
target = (2,30);
type = Stem;
},
{
origin = (2,13);
target = (2,20);
type = Stem;
}
);
layerId = m01;
shapes = (
{
closed = 1;
nodes = (
(463,707,o),
(435,698,o),
(395,685,cs),
(280,647,o),
(84,540,o),
(63,317,cs),
(53,210,ls),
(49,169,o),
(30,139,o),
(40,139,cs),
(50,139,o),
(173,203,o),
(173,258,cs),
(173,350,ls),
(173,482,o),
(249,590,o),
(378,640,cs),
(463,675,l),
(463,691,l)
);
},
{
piece = {
Width = 75.25253;
"leftSerif-height" = 75.52084;
"rightSerif-sharpness" = 0;
};
pos = (116,0);
ref = _smart.hBar;
},
{
closed = 1;
nodes = (
(463,683,l),
(353,634,l),
(353,607,l),
(353,239,ls),
(353,226,o),
(343,208,o),
(351,208,cs),
(357,208,o),
(427,239,o),
(456,270,cs),
(466,280,o),
(475,277,o),
(475,234,cs),
(475,35,ls),
(475,8,o),
(443,-9,o),
(456,-9,cs),
(464,-9,o),
(585,35,o),
(585,70,cs),
(585,342,ls),
(585,353,o),
(582,374,o),
(576,377,cs),
(571,380,o),
(491,317,o),
(456,298,c),
(459,304,o),
(463,322,o),
(463,340,c),
(463,648,l)
);
}
);
width = 610;
},
{
associatedMasterId = m01;
backgroundImage = {
imagePath = "../reference/scan/N-R.jpg";
locked = 1;
pos = (-123,-875);
scale = (12,12);
};
hints = (
{
origin = (0,6);
target = (0,13);
type = Stem;
}
);
layerId = "9F8C1425-3EC6-4916-B881-DF3A5A97362B";
name = before;
shapes = (
{
closed = 1;
nodes = (
(458,707,o),
(430,698,o),
(390,685,cs),
(275,647,o),
(79,540,o),
(58,317,cs),
(48,210,ls),
(44,169,o),
(25,139,o),
(35,139,cs),
(45,139,o),
(168,203,o),
(168,258,cs),
(168,350,ls),
(168,482,o),
(244,590,o),
(373,640,cs),
(458,675,l),
(458,691,l)
);
},
{
piece = {
Width = 75.25253;
"leftSerif-height" = 75.52084;
"rightSerif-sharpness" = 0;
};
pos = (111,0);
ref = _smart.hBar;
},
{
piece = {
Height = -8.17308;
"bottomSerif-length" = -40.24653;
"topSerif-flatness" = 30;
"topSerif-sharpness" = 70;
};
pos = (348,244);
ref = _smart.vBar;
},
{
piece = {
Height = -78.36539;
};
pos = (470,35);
ref = _smart.vBar;
}
);
visible = 1;
width = 600;
}
);
unicode = 82;
},
{
glyphname = Germandbls;
kernLeft = LAB;
kernRight = Z;
lastChange = "2024-05-21 10:41:11 +0000";
layers = (
{
layerId = m01;
shapes = (
{
alignment = -1;
piece = {
"bottomSerif-length" = -30;
"bottomSerif-sharpness" = 0;
};
pos = (73,0);
ref = _smart.vBar;
},
{
piece = {
Width = 35.0101;
"leftSerif-sharpness" = 100;
"rightSerif-flatness" = 100;
"rightSerif-sharpness" = 0;
};
pos = (157,605);
ref = _smart.hBar;
},
{
closed = 1;
nodes = (
(367,591,l),
(409,566,o),
(447,508,o),
(479,451,c),
(489,480,l),
(429,423,o),
(322,343,o),
(322,322,cs),
(322,301,o),
(509,178,o),
(509,129,cs),
(509,73,o),
(451,44,o),
(390,-7,cs),
(368,-25,o),
(376,-29,o),
(385,-24,cs),
(535,58,o),
(612,151,o),
(612,165,cs),
(612,212,o),
(432,363,o),
(432,382,cs),
(432,420,o),
(574,508,o),
(574,538,cs),
(574,550,o),
(447,695,o),
(438,695,cs),
(427,695,o),
(394,661,o),
(367,643,c)
);
}
);
width = 640;
}
);
unicode = 7838;
},
{
color = 7;
glyphname = T;
kernLeft = T;
kernRight = RAB;
lastChange = "2024-05-21 10:41:28 +0000";
layers = (
{
anchors = (
{
name = bottom;
pos = (274,-2);
},
{
name = ogonek;
pos = (430,12);
},
{
name = top;
pos = (321,620);
}
);
backgroundImage = {
imagePath = "../reference/scan/N-T.jpg";
locked = 1;
pos = (-267,-891);
scale = (12,12);
};
layerId = m01;
shapes = (
{
closed = 1;
nodes = (
(334,393,o),
(233,323,o),
(64,241,c),
(64,176,l),
(64,150,o),
(293,328,o),
(470,418,c),
(456,456,l)
);
},
{
piece = {
Width = 64;
"leftSerif-height" = 100;
"rightSerif-flatness" = 0;
"rightSerif-sharpness" = 0;
};
pos = (127,0);
ref = _smart.hBar;
},
{
piece = {
Height = 82.51749;
"topSerif-length" = 60;
};
pos = (444,36);
ref = _smart.vBar;
},
{
piece = {
Height = -1.6317;
"bottomSerif-sharpness" = 100;
"topSerif-length" = 60;
};
pos = (64,211);
ref = _smart.vBar;
},
{
piece = {
Width = 73.66666;
"leftSerif-sharpness" = 100;
"rightSerif-flatness" = 100;
"rightSerif-sharpness" = 0;
};
pos = (135,610);
ref = _smart.hBar;
}
);
width = 580;
}
);
unicode = 84;
},
{
color = 7;
glyphname = U;
kernLeft = U;
kernRight = U;
lastChange = "2024-05-21 10:41:39 +0000";
layers = (
{
anchors = (
{
name = bottom;
pos = (330,0);
},
{
name = ogonek;
pos = (521,-5);
},
{
name = top;
pos = (328,640);
}
);
backgroundImage = {
imagePath = "../reference/scan/N-U.jpg";
locked = 1;
pos = (-215,-908);
scale = (12,12);
};
hints = (
{
origin = (0,7);
target = (0,14);
type = Stem;
}
);
layerId = m01;
shapes = (
{
closed = 1;
nodes = (
(613,359,l),
(613,600,o),
(493,689,o),
(326,689,cs),
(159,689,o),
(39,600,o),
(39,359,c),
(39,44,ls),
(39,-6,o),
(26,-28,o),
(34,-28,cs),
(46,-28,o),
(149,28,o),
(149,65,cs),
(149,359,l),
(150,564,o),
(214,636,o),
(326,636,cs),
(438,636,o),
(503,564,o),
(503,359,c)
);
},
{
piece = {
Height = -35.09615;
"bottomSerif-length" = -25.74984;
"bottomSerif-sharpness" = 0;
"topSerif-flatness" = 100;
};
pos = (503,0);
ref = _smart.vBar;
},
{
piece = {
Height = -51.92308;
"bottomSerif-length" = -13.95404;
"bottomSerif-sharpness" = 30;
"topSerif-length" = 35;
};
pos = (280,36);
ref = _smart.vBar;
},
{
piece = {
Width = 18.33333;
"leftSerif-height" = 100;
"rightSerif-flatness" = 50;
"rightSerif-sharpness" = 50;
};
pos = (327,0);
ref = _smart.hBar;
}
);
width = 640;
}
);
unicode = 85;
},
{
color = 7;
glyphname = V;
kernLeft = LAB_V;
kernRight = V;
lastChange = "2024-05-21 11:12:01 +0000";
layers = (
{
backgroundImage = {
imagePath = "../reference/scan/N-V.jpg";
locked = 1;
pos = (-204,-899);
scale = (12,12);
};
layerId = m01;
shapes = (
{
closed = 1;
nodes = (
(521,697,o),
(412,614,o),
(412,601,cs),
(412,595,o),
(445,577,o),
(445,550,cs),
(445,506,o),
(250,200,o),
(186,87,c),
(195,29,l),
(361,264,o),
(581,614,o),
(581,622,cs),
(581,632,o),
(538,697,o),
(530,697,cs)
);
},
{
piece = {
Width = 87.33334;
"leftSerif-height" = 100;
"rightSerif-length" = 3;
};
pos = (116,0);
ref = _smart.hBar;
},
{
piece = {
"bottomSerif-flatness" = 70;
"bottomSerif-sharpness" = 30;
};
pos = (88,0);
ref = _smart.vBar;
}
);
width = 600;
}
);
unicode = 86;
},
{
color = 7;
glyphname = W;
kernLeft = LAB;
kernRight = RAB;
lastChange = "2024-05-21 05:22:26 +0000";
layers = (
{
anchors = (
{
name = top;
pos = (348,590);
}
);
backgroundImage = {
imagePath = "../reference/scan/N-W.jpg";
locked = 1;
pos = (-138,-906);
scale = (12,12);
};
layerId = m01;
shapes = (
{
closed = 1;
nodes = (
(381,387,l),
(438,468,o),
(464,505,o),
(526,575,c),
(505,597,l),
(434,522,o),
(419,502,o),
(365,424,c)
);
},
{
piece = {
Height = 86.15968;
"bottomSerif-length" = -30;
"bottomSerif-sharpness" = 0;
};
pos = (72,29);
ref = _smart.vBar;
},
{
piece = {
Width = 22;
"leftSerif-height" = 100;
"rightSerif-flatness" = 0;
"rightSerif-sharpness" = 0;
};
pos = (307,0);
ref = _smart.hBar;
},
{
piece = {
Height = 86.15968;
"bottomSerif-length" = -30;
"bottomSerif-sharpness" = 0;
};
pos = (503,29);
ref = _smart.vBar;
},
{
piece = {
Height = -60.57692;
"bottomSerif-length" = -40;
"bottomSerif-sharpness" = 0;
"topSerif-length" = 0;
};
pos = (279,151);
ref = _smart.vBar;
},
{
closed = 1;
nodes = (
(315,333,l),
(236,235,o),
(194,186,o),
(153,119,c),
(163,83,l),
(209,145,o),
(257,202,o),
(325,303,c)
);
}
);
width = 640;
}
);
unicode = 87;
},
{
color = 7;
glyphname = X;
kernLeft = LAB;
kernRight = X;
lastChange = "2024-05-21 11:12:06 +0000";
layers = (
{
backgroundImage = {
imagePath = "../reference/scan/N-X.jpg";
locked = 1;
pos = (-128,-899);
scale = (12,12);
};
hints = (
{
horizontal = 1;
origin = (0,9);
target = (0,16);
type = Stem;
}
);
layerId = m01;
shapes = (
{
closed = 1;
nodes = (
(574,504,o),
(507,474,o),
(475,430,cs),
(430,369,o),
(262,73,o),
(213,34,cs),
(199,23,o),
(158,-16,o),
(170,-16,cs),
(529,-16,ls),
(541,-16,o),
(591,26,o),
(603,42,cs),
(608,49,o),
(574,39,o),
(561,39,cs),
(282,39,l),
(313,70,o),
(437,259,o),
(484,350,cs),
(523,426,o),
(559,465,o),
(593,495,cs),
(601,502,o),
(595,504,o),
(587,504,cs)
);
},
{
closed = 1;
nodes = (
(442,697,o),
(333,614,o),
(333,601,cs),
(333,595,o),
(366,577,o),
(366,550,cs),
(366,506,o),
(186,197,o),
(158,155,c),
(182,107,l),
(182,140,o),
(501,604,o),
(502,622,cs),
(502,632,o),
(459,697,o),
(451,697,cs)
);
},
{
piece = {
Height = 75.96154;
"bottomSerif-flatness" = 0;
"bottomSerif-length" = -30;
"bottomSerif-sharpness" = 0;
};
pos = (73,50);
ref = _smart.vBar;
}
);
width = 620;
}
);
unicode = 88;
},
{
color = 7;
glyphname = Y;
kernLeft = Y;
kernRight = RAB;
lastChange = "2024-05-21 10:42:03 +0000";
layers = (
{
anchors = (
{
name = bottom;
pos = (298,0);
},
{
name = top;
pos = (399,680);
}
);
backgroundImage = {
imagePath = "../reference/scan/N-Y.jpg";
locked = 1;
pos = (-306,-920);
scale = (12,12);
};
hints = (
{
origin = (0,17);
target = (0,8);
type = Stem;
},
{
horizontal = 1;
origin = (0,11);
target = (0,14);
type = Stem;
}
);
layerId = m01;
shapes = (
{
closed = 1;
nodes = (
(3,-38,o),
(8,-43,o),
(22,-31,cs),
(226,144,o),
(350,202,o),
(350,220,cs),
(350,239,o),
(207,298,o),
(207,453,cs),
(207,571,o),
(370,687,o),
(435,703,cs),
(443,705,o),
(443,714,o),
(428,714,cs),
(374,714,o),
(83,617,o),
(83,409,cs),
(83,326,o),
(129,220,o),
(222,196,c),
(153,135,o),
(17,-12,o),
(8,-28,cs)
);
},
{
piece = {
Width = 99.44444;
"leftSerif-sharpness" = 100;
"rightSerif-flatness" = 60;
"rightSerif-sharpness" = 40;
};
pos = (73,0);
ref = _smart.hBar;
},
{
piece = {
Height = 93.68349;
"bottomSerif-length" = -30;
"bottomSerif-sharpness" = 0;
};
pos = (483,0);
ref = _smart.vBar;
}
);
width = 620;
}
);
unicode = 89;
},
{
color = 7;
glyphname = Z;
kernLeft = LAB;
kernRight = Z;
lastChange = "2024-05-21 10:41:17 +0000";
layers = (
{
anchors = (
{
name = bottom;
pos = (297,0);
},
{
name = top;
pos = (301,624);
}
);
backgroundImage = {
imagePath = "../reference/scan/N-Z.jpg";
locked = 1;
pos = (-292,-918);
scale = (12,12);
};
layerId = m01;
shapes = (
{
closed = 1;
nodes = (
(285,617,o),
(391,520,o),
(442,451,c),
(452,480,l),
(392,423,o),
(285,343,o),
(285,322,cs),
(285,301,o),
(513,49,o),
(471,14,c),
(460,28,l),
(545,24,o),
(594,68,o),
(594,82,cs),
(594,129,o),
(395,363,o),
(395,382,cs),
(395,420,o),
(545,515,o),
(545,545,cs),
(545,557,o),
(425,700,o),
(416,700,cs),
(401,700,o),
(285,636,o),
(285,626,cs)
);
},
{
piece = {
Width = 63.66667;
"leftSerif-flatness" = 20;
"leftSerif-sharpness" = 80;
};
pos = (125,0);
ref = _smart.hBar;
},
{
piece = {
"bottomSerif-length" = -30;
"bottomSerif-sharpness" = 0;
};
pos = (73,0);
ref = _smart.vBar;
}
);
width = 610;
}
);
unicode = 90;
},
{
color = 7;
glyphname = a;
kernLeft = a;
kernRight = RxB;
lastChange = "2024-05-21 10:42:54 +0000";
layers = (
{
anchors = (
{
name = bottom;
pos = (288,0);
},
{
name = ogonek;
pos = (449,5);
},
{
name = top;
pos = (385,480);
}
);
backgroundImage = {
imagePath = "../reference/scan/N-small-a.jpg";
locked = 1;
pos = (-328,-814);
scale = (12,12);
};
layerId = m01;
shapes = (
{
closed = 1;
nodes = (
(168,345,o),
(38,43,o),
(14,-16,c),
(66,-16,l),
(73,31,l),
(114,136,o),
(168,267,o),
(236,429,c),
(220,452,l)
);
},
{
piece = {
Width = 86.11111;
"leftSerif-flatness" = 50;
"leftSerif-sharpness" = 50;
"rightSerif-flatness" = 0;
"rightSerif-sharpness" = 0;
};
pos = (50,0);
ref = _smart.hBar;
},
{
piece = {
Height = 15;
"bottomSerif-length" = -40;
"bottomSerif-sharpness" = 0;
};
pos = (425,0);
ref = _smart.vBar;
},
{
piece = {
Height = -57.21154;
"bottomSerif-length" = -40;
"bottomSerif-sharpness" = 0;
};
pos = (236,150);
ref = _smart.vBar;
}
);
width = 560;
}
);
unicode = 97;
},
{
glyphname = ae;
kernLeft = a;
kernRight = RxB;
lastChange = "2024-05-21 10:43:14 +0000";
layers = (
{
layerId = m01;
shapes = (
{
closed = 1;
nodes = (
(171,345,o),
(41,43,o),
(17,-16,c),
(69,-16,l),
(76,31,l),
(117,136,o),
(171,267,o),
(239,429,c),
(223,452,l)
);
},
{
piece = {
Width = 73.66666;
"leftSerif-flatness" = 50;
"leftSerif-sharpness" = 50;
"rightSerif-flatness" = 0;
"rightSerif-sharpness" = 100;
};
pos = (53,0);
ref = _smart.hBar;
},
{
piece = {
Height = -57.21154;
"bottomSerif-length" = -40;
"bottomSerif-sharpness" = 0;
};
pos = (239,150);
ref = _smart.vBar;
},
{
alignment = -1;
piece = {
Height = 15;
"bottomSerif-length" = -40;
"bottomSerif-sharpness" = 0;
};
pos = (824,0);
ref = _smart.vBar;
},
{
alignment = -1;
pos = (697,0);
ref = _smart.hBar;
},
{
alignment = -1;
piece = {
Height = 0.48832;
"bottomSerif-sharpness" = 100;
};
pos = (429,30);
ref = _smart.vBar;
},
{
alignment = -1;
piece = {
Height = -68.13811;
"bottomSerif-length" = -20;
"bottomSerif-sharpness" = 0;
"topSerif-flatness" = 20;
"topSerif-length" = 100;
"topSerif-sharpness" = 80;
};
pos = (629,0);
ref = _smart.vBar;
},
{
closed = 1;
nodes = (
(392,-16,l),
(463,-16,o),
(527,50,o),
(539,65,cs),
(574,109,o),
(611,159,o),
(628,213,c),
(739,318,l),
(739,401,o),
(707,338,o),
(610,291,c),
(620,278,o),
(577,195,o),
(539,119,c),
(429,30,l)
);
}
);
width = 960;
}
);
unicode = 230;
},
{
color = 7;
glyphname = b;
kernLeft = b;
kernRight = RAB;
lastChange = "2024-05-21 10:43:20 +0000";
layers = (
{
anchors = (
{
name = bottom;
pos = (237,0);
}
);
backgroundImage = {
imagePath = "../reference/scan/N-small-b.jpg";
locked = 1;
pos = (-343,-818);
scale = (12,12);
};
layerId = m01;
shapes = (
{
closed = 1;
nodes = (
(339,383,l),
(354,383,l),
(354,394,l),
(339,394,l)
);
},
{
piece = {
Height = 103.29888;
"bottomSerif-length" = -40;
"bottomSerif-sharpness" = 0;
};
pos = (315,0);
ref = _smart.vBar;
},
{
piece = {
Width = 25.75758;
"leftSerif-flatness" = 100;
"rightSerif-flatness" = 100;
};
pos = (106,0);
ref = _smart.hBar;
},
{
piece = {
Width = 25.75758;
"leftSerif-flatness" = 100;
"rightSerif-flatness" = 100;
};
pos = (106,211);
ref = _smart.hBar;
},
{
piece = {
Height = -33.581;
"bottomSerif-length" = -20;
"bottomSerif-sharpness" = 0;
};
pos = (70,0);
ref = _smart.vBar;
}
);
width = 450;
}
);
unicode = 98;
},
{
color = 7;
glyphname = c;
kernLeft = o;
kernRight = o;
lastChange = "2024-05-21 06:33:13 +0000";
layers = (
{
anchors = (
{
name = ogonek;
pos = (307,0);
},
{
name = top;
pos = (295,480);
}
);
backgroundImage = {
imagePath = "../reference/scan/N-small-c.jpg";
locked = 1;
pos = (-247,-828);
scale = (12,12);
};
hints = (
{
origin = (0,23);
target = (0,20);
type = Stem;
},
{
origin = (0,11);
target = (0,29);
type = Stem;
},
{
horizontal = 1;
origin = (0,18);
target = (0,20);
type = Stem;
},
{
horizontal = 1;
origin = (0,8);
target = (0,32);
type = Stem;
},
{
horizontal = 1;
origin = (0,26);
target = (0,14);
type = Stem;
}
);
layerId = m01;
shapes = (
{
closed = 1;
nodes = (
(128,519,o),
(52,362,o),
(52,336,cs),
(52,326,o),
(124,332,o),
(128,336,cs),
(136,345,o),
(152,466,o),
(241,466,cs),
(346,466,o),
(445,349,o),
(445,180,cs),
(445,95,o),
(415,16,o),
(336,16,cs),
(234,16,o),
(145,137,o),
(145,194,c),
(466,194,l),
(466,249,l),
(145,249,l),
(75,249,o),
(32,260,o),
(32,237,cs),
(32,73,o),
(152,-37,o),
(274,-37,cs),
(356,-37,o),
(557,16,o),
(557,230,cs),
(557,407,o),
(419,519,o),
(291,519,cs)
);
}
);
width = 590;
}
);
unicode = 99;
},
{
color = 7;
glyphname = d;
kernLeft = d;
kernRight = RxB;
lastChange = "2024-05-21 10:43:39 +0000";
layers = (
{
anchors = (
{
name = bottom;
pos = (294,0);
},
{
name = top;
pos = (371,456);
}
);
annotations = (
{
angle = -28.17859;
pos = (174.984,224);
type = Arrow;
}
);
backgroundImage = {
imagePath = "../reference/scan/N-small-d.jpg";
locked = 1;
pos = (-192,-828);
scale = (12,12);
};
hints = (
{
origin = (3,26);
target = (3,33);
type = Stem;
},
{
origin = (3,16);
target = (3,6);
type = Stem;
}
);
layerId = m01;
shapes = (
{
piece = {
Height = 15;
"bottomSerif-length" = -30;
"bottomSerif-sharpness" = 0;
};
pos = (444,0);
ref = _smart.vBar;
},
{
piece = {
Width = 28.28283;
"rightSerif-length" = 3;
};
pos = (126,0);
ref = _smart.hBar;
},
{
piece = {
Width = 46.0101;
"rightSerif-flatness" = 100;
"rightSerif-length" = 0;
};
pos = (213,436);
ref = _smart.hBar;
},
{
closed = 1;
nodes = (
(170,218,o),
(163,227,o),
(157,227,c),
(204,253,o),
(261,276,o),
(261,309,cs),
(261,501,ls),
(261,512,o),
(258,533,o),
(252,536,cs),
(244,540,o),
(105,456,o),
(105,446,cs),
(105,434,o),
(151,452,o),
(151,393,cs),
(151,278,ls),
(151,261,o),
(156,238,o),
(135,224,cs),
(106,205,o),
(34,167,o),
(34,159,cs),
(34,152,o),
(60,161,o),
(60,106,cs),
(60,-2,ls),
(60,-23,o),
(37,-43,o),
(47,-43,cs),
(54,-43,o),
(170,3,o),
(170,33,cs),
(170,202,l)
);
}
);
width = 580;
},
{
associatedMasterId = m01;
backgroundImage = {
imagePath = "../reference/scan/N-small-d.jpg";
locked = 1;
pos = (-192,-828);
scale = (12,12);
};
layerId = "2AD167DC-42F9-4FEA-94F2-BB6802026273";
name = backup;
shapes = (
{
closed = 1;
nodes = (
(64,180,l),
(97,174,l),
(208,270,l),
(172,270,l)
);
},
{
piece = {
Height = 15;
"bottomSerif-length" = -30;
"bottomSerif-sharpness" = 0;
};
pos = (436,0);
ref = _smart.vBar;
},
{
piece = {
Width = 28.28283;
"rightSerif-length" = 3;
};
pos = (118,0);
ref = _smart.hBar;
},
{
piece = {
Width = 46.0101;
"rightSerif-flatness" = 100;
"rightSerif-length" = 0;
};
pos = (205,436);
ref = _smart.hBar;
},
{
piece = {
Height = -123.23718;
"bottomSerif-length" = -20;
"bottomSerif-sharpness" = 0;
"topSerif-length" = 0;
};
pos = (52,0);
ref = _smart.vBar;
},
{
piece = {
Height = -111.69872;
"bottomSerif-length" = 125.97575;
"bottomSerif-sharpness" = 0;
};
pos = (143,263);
ref = _smart.vBar;
}
);
width = 550;
}
);
unicode = 100;
},
{
color = 7;
glyphname = e;
kernLeft = LxB;
kernRight = RxB;
lastChange = "2024-05-21 06:34:41 +0000";
layers = (
{
anchors = (
{
name = ogonek;
pos = (500,10);
},
{
name = top;
pos = (336,452);
}
);
backgroundImage = {
imagePath = "../reference/scan/N-small-e.jpg";
locked = 1;
pos = (-143,-833);
scale = (12,12);
};
layerId = m01;
shapes = (
{
piece = {
Height = 15;
"bottomSerif-length" = -40;
"bottomSerif-sharpness" = 0;
};
pos = (465,0);
ref = _smart.vBar;
},
{
pos = (338,0);
ref = _smart.hBar;
},
{
piece = {
Height = 15;
"bottomSerif-sharpness" = 100;
};
pos = (70,0);
ref = _smart.vBar;
},
{
piece = {
Height = -68.13811;
"bottomSerif-length" = -20;
"bottomSerif-sharpness" = 0;
"topSerif-flatness" = 20;
"topSerif-length" = 100;
"topSerif-sharpness" = 80;
};
pos = (270,0);
ref = _smart.vBar;
},
{
closed = 1;
nodes = (
(70,-26,o),
(56,-45,o),
(65,-45,cs),
(74,-45,o),
(171,19,o),
(180,35,cs),
(211,91,o),
(252,159,o),
(269,213,c),
(380,318,l),
(380,401,o),
(348,338,o),
(251,291,c),
(261,278,o),
(218,186,o),
(180,110,c),
(70,5,l)
);
}
);
width = 600;
}
);
unicode = 101;
},
{
color = 7;
glyphname = f;
kernLeft = f;
kernRight = f;
lastChange = "2024-05-21 11:12:17 +0000";
layers = (
{
backgroundImage = {
imagePath = "../reference/scan/N-small-f.jpg";
locked = 1;
pos = (-128,-833);
scale = (12,12);
};
hints = (
{
horizontal = 1;
origin = (2,6);
target = (2,0);
type = Stem;
}
);
layerId = m01;
shapes = (
{
closed = 1;
nodes = (
(102,472,o),
(24,419,o),
(24,411,cs),
(24,400,o),
(180,348,o),
(180,288,cs),
(180,231,o),
(41,219,o),
(41,205,cs),
(41,200,o),
(58,190,o),
(58,170,c),
(168,127,l),
(190,135,o),
(250,220,o),
(250,277,cs),
(250,357,o),
(131,472,o),
(116,472,cs)
);
},
{
piece = {
Height = -119.27448;
"bottomSerif-length" = -20;
"bottomSerif-sharpness" = 0;
};
pos = (429,269);
ref = _smart.vBar;
},
{
closed = 1;
nodes = (
(174,39,o),
(150,39,o),
(150,39,cs),
(150,39,o),
(79,-16,o),
(79,-16,c),
(398,-16,l),
(429,-16,o),
(539,212,o),
(534,216,cs),
(523,225,o),
(385,39,o),
(344,39,c),
(174,39,l)
);
},
{
piece = {
Height = -102.88461;
"bottomSerif-length" = -40;
"bottomSerif-sharpness" = 0;
"topSerif-flatness" = 50;
"topSerif-length" = 100;
"topSerif-sharpness" = 50;
};
pos = (58,-11);
ref = _smart.vBar;
},
{
piece = {
Width = 73.73737;
"leftSerif-flatness" = 100;
"rightSerif-flatness" = 100;
};
pos = (116,433);
ref = _smart.hBar;
}
);
width = 560;
}
);
unicode = 102;
},
{
color = 7;
glyphname = g;
kernLeft = o;
kernRight = RxB;
lastChange = "2024-05-21 06:36:06 +0000";
layers = (
{
anchors = (
{
name = top;
pos = (363,536);
}
);
backgroundImage = {
imagePath = "../reference/scan/N-small-g.jpg";
locked = 1;
pos = (-307,-834);
scale = (12,12);
};
hints = (
{
origin = (1,2);
target = (1,12);
type = Stem;
},
{
horizontal = 1;
origin = (1,15);
target = (1,18);
type = Stem;
},
{
horizontal = 1;
origin = (1,17);
target = (1,18);
type = Stem;
},
{
horizontal = 1;
origin = (1,5);
target = (1,8);
type = Stem;
}
);
layerId = m01;
shapes = (
{
piece = {
Height = 15;
"bottomSerif-length" = -40;
"bottomSerif-sharpness" = 0;
};
pos = (434,0);
ref = _smart.vBar;
},
{
closed = 1;
nodes = (
(296,570,o),
(37,469,o),
(37,250,cs),
(37,64,o),
(225,-5,o),
(249,-5,cs),
(271,-5,o),
(379,56,o),
(379,72,c),
(270,123,l),
(225,123,o),
(145,192,o),
(145,305,cs),
(145,462,o),
(300,536,o),
(351,554,cs),
(369,560,o),
(379,570,o),
(363,570,cs)
);
},
{
piece = {
Height = -66.82692;
"bottomSerif-flatness" = 50;
"bottomSerif-sharpness" = 50;
};
pos = (269,54);
ref = _smart.vBar;
},
{
closed = 1;
nodes = (
(511,538,o),
(411,475,o),
(358,425,c),
(316,401,o),
(223,343,o),
(223,330,c),
(276,330,l),
(367,427,o),
(434,459,o),
(434,393,cs),
(434,345,o),
(544,447,o),
(544,480,cs),
(544,513,o),
(544,538,o),
(535,538,cs)
);
}
);
width = 570;
}
);
unicode = 103;
},
{
color = 7;
glyphname = h;
kernLeft = LxB;
kernRight = h;
lastChange = "2024-05-21 10:44:49 +0000";
layers = (
{
anchors = (
{
name = bottom;
pos = (312,0);
},
{
name = top;
pos = (339,480);
}
);
backgroundImage = {
imagePath = "../reference/correction/N-small-h.png";
locked = 1;
pos = (-134,-844);
scale = (16.4,16.4);
};
hints = (
{
origin = (1,18);
target = (1,10);
type = Stem;
},
{
origin = (1,6);
target = (1,0);
type = Stem;
},
{
horizontal = 1;
origin = (1,6);
target = (1,4);
type = Stem;
}
);
layerId = m01;
shapes = (
{
piece = {
Height = 15;
"bottomSerif-length" = -40;
"bottomSerif-sharpness" = 0;
};
pos = (72,0);
ref = _smart.vBar;
},
{
closed = 1;
nodes = (
(563,500,l),
(563,522,o),
(506,487,o),
(436,487,cs),
(157,487,l),
(157,432,l),
(453,432,l),
(453,314,o),
(402,170,o),
(355,132,c),
(355,449,l),
(318,438,l),
(312,426,o),
(214,390,o),
(214,377,cs),
(214,365,o),
(245,373,o),
(245,314,cs),
(245,123,ls),
(245,54,o),
(232,12,o),
(240,12,cs),
(275,12,o),
(563,174,o),
(563,437,c)
);
}
);
width = 590;
}
);
unicode = 104;
},
{
color = 7;
glyphname = i;
kernLeft = i;
kernRight = RAB;
lastChange = "2024-05-21 10:45:03 +0000";
layers = (
{
anchors = (
{
name = bottom;
pos = (136,0);
},
{
name = ogonek;
pos = (142,14);
},
{
name = top;
pos = (140,640);
}
);
backgroundImage = {
imagePath = "../reference/correction/N-small-i.png";
locked = 1;
pos = (-306,-896);
scale = (16.4,16.4);
};
layerId = m01;
shapes = (
{
closed = 1;
nodes = (
(153,440,l),
(187,440,l),
(187,490,l),
(153,490,l)
);
},
{
piece = {
Height = 94.16427;
"bottomSerif-length" = 143.31926;
"bottomSerif-sharpness" = 0;
};
pos = (103,19);
ref = _smart.vBar;
}
);
width = 240;
}
);
unicode = 105;
},
{
color = 7;
glyphname = j;
kernLeft = j;
kernRight = RxB;
lastChange = "2024-05-21 10:45:25 +0000";
layers = (
{
anchors = (
{
name = top;
pos = (304,480);
}
);
backgroundImage = {
imagePath = "../reference/correction/N-small-j.png";
locked = 1;
pos = (-164,-849);
scale = (16.4,16.4);
};
hints = (
{
origin = (2,2);
target = (2,14);
type = Stem;
},
{
origin = (2,17);
target = (2,30);
type = Stem;
}
);
layerId = m01;
shapes = (
{
piece = {
Height = -25.16026;
"bottomSerif-length" = -40;
"bottomSerif-sharpness" = 0;
};
pos = (435,0);
ref = _smart.vBar;
},
{
piece = {
Width = 62.66667;
"leftSerif-flatness" = 50;
"leftSerif-sharpness" = 50;
"rightSerif-flatness" = 100;
"rightSerif-sharpness" = 0;
};
pos = (108,0);
ref = _smart.hBar;
},
{
closed = 1;
nodes = (
(36,338,o),
(82,356,o),
(82,297,cs),
(82,230,o),
(73,165,o),
(24,91,cs),
(19,84,o),
(25,83,o),
(31,88,cs),
(82,124,o),
(192,232,o),
(192,278,cs),
(192,298,o),
(192,423,o),
(192,430,c),
(236,452,o),
(249,434,o),
(249,350,cs),
(249,387,o),
(249,324,o),
(249,278,cs),
(249,211,o),
(72,-6,o),
(54,-30,cs),
(43,-45,o),
(51,-45,o),
(60,-39,cs),
(121,0,o),
(359,226,o),
(359,278,cs),
(359,500,ls),
(359,511,o),
(356,532,o),
(350,535,cs),
(331,543,o),
(258,490,o),
(166,431,c),
(137,421,o),
(36,360,o),
(36,350,cs)
);
}
);
width = 570;
}
);
unicode = 106;
},
{
color = 7;
glyphname = k;
kernLeft = k;
kernRight = rt;
lastChange = "2024-05-21 10:45:42 +0000";
layers = (
{
anchors = (
{
name = bottom;
pos = (256,20);
}
);
backgroundImage = {
imagePath = "../reference/correction/N-small-k.png";
locked = 1;
pos = (-235,-856);
scale = (16.4,16.4);
};
layerId = m01;
shapes = (
{
piece = {
Height = 2.64423;
"bottomSerif-sharpness" = 100;
};
pos = (349,26);
ref = _smart.vBar;
},
{
pos = (349,23);
ref = _part.tick;
},
{
piece = {
Width = 38;
"leftSerif-height" = 100;
"leftSerif-sharpness" = 0;
"rightSerif-flatness" = 100;
};
pos = (128,443);
ref = _smart.hBar;
},
{
piece = {
Height = -73.07692;
"bottomSerif-length" = 79.02142;
"topSerif-sharpness" = 100;
};
pos = (69,13);
ref = _smart.vBar;
},
{
closed = 1;
nodes = (
(313,385,o),
(69,337,o),
(69,274,cs),
(69,237,l),
(179,255,l),
(179,315,o),
(313,355,o),
(353,355,c),
(353,385,l)
);
}
);
width = 560;
}
);
unicode = 107;
},
{
color = 7;
glyphname = l;
kernLeft = LxB;
kernRight = rt;
lastChange = "2024-05-21 06:38:58 +0000";
layers = (
{
anchors = (
{
name = bottom;
pos = (222,0);
},
{
name = top;
pos = (254,480);
}
);
backgroundImage = {
imagePath = "../reference/correction/N-small-l.png";
locked = 1;
pos = (-292,-874);
scale = (16.4,16.4);
};
layerId = m01;
shapes = (
{
closed = 1;
nodes = (
(100,371,l),
(176,371,l),
(176,443,l),
(100,443,l)
);
},
{
piece = {
Height = 15;
"bottomSerif-sharpness" = 100;
};
pos = (69,0);
ref = _smart.vBar;
},
{
piece = {
Height = 15;
"bottomSerif-sharpness" = 100;
};
pos = (270,0);
ref = _smart.vBar;
},
{
piece = {
tail = 69.17377;
};
pos = (69,0);
ref = _part.tick;
},
{
pos = (270,0);
ref = _part.tick;
}
);
width = 480;
}
);
unicode = 108;
},
{
glyphname = lslash;
kernLeft = LxB;
kernRight = rt;
lastChange = "2024-05-21 10:46:06 +0000";
layers = (
{
layerId = m01;
shapes = (
{
ref = l;
},
{
closed = 1;
nodes = (
(125,241,l),
(92,226,o),
(28,198,o),
(25,195,cs),
(19,188,o),
(17,137,o),
(25,137,cs),
(31,137,o),
(92,168,o),
(125,183,c)
);
},
{
closed = 1;
nodes = (
(321,338,l),
(125,248,l),
(125,190,l),
(321,280,l)
);
},
{
closed = 1;
nodes = (
(321,287,l),
(357,303,o),
(426,330,o),
(430,336,cs),
(434,342,o),
(436,394,o),
(430,394,cs),
(424,394,o),
(357,361,o),
(321,345,c)
);
}
);
width = 480;
}
);
unicode = 322;
},
{
color = 7;
glyphname = m;
kernLeft = LxB;
kernRight = RxB;
lastChange = "2024-05-21 07:02:26 +0000";
layers = (
{
anchors = (
{
name = bottom;
pos = (308,0);
},
{
name = top;
pos = (314,436);
}
);
backgroundImage = {
imagePath = "../reference/scan/N-small-m.jpg";
locked = 1;
pos = (-319,-836);
scale = (12,12);
};
layerId = m01;
shapes = (
{
piece = {
Width = 76.54546;
"leftSerif-flatness" = 100;
"leftSerif-sharpness" = 0;
"rightSerif-flatness" = 100;
};
pos = (86,0);
ref = _smart.hBar;
},
{
piece = {
Height = -73.6242;
"bottomSerif-length" = 48.75901;
};
pos = (258,64);
ref = _smart.vBar;
},
{
closed = 1;
nodes = (
(535,542,o),
(398,459,o),
(354,424,c),
(304,400,o),
(212,336,o),
(212,326,c),
(347,400,l),
(373,424,o),
(443,460,o),
(443,381,c),
(553,518,l),
(553,534,o),
(550,542,o),
(544,542,cs)
);
},
{
piece = {
Height = -12.08573;
"bottomSerif-length" = -40;
};
pos = (70,0);
ref = _smart.vBar;
},
{
piece = {
Height = 24.51923;
"bottomSerif-length" = -40;
"topSerif-sharpness" = 100;
};
pos = (443,0);
ref = _smart.vBar;
}
);
width = 580;
}
);
unicode = 109;
},
{
color = 7;
glyphname = n;
kernLeft = LxB;
kernRight = RxB;
lastChange = "2024-05-21 06:40:06 +0000";
layers = (
{
anchors = (
{
name = bottom;
pos = (304,0);
},
{
name = top;
pos = (325,469);
}
);
backgroundImage = {
imagePath = "../reference/correction/N-small-n.png";
locked = 1;
pos = (-117,-813);
scale = (16.4,16.4);
};
layerId = m01;
shapes = (
{
piece = {
Height = -9.13461;
"bottomSerif-sharpness" = 0;
};
pos = (464,50);
ref = _smart.vBar;
},
{
piece = {
Width = 22.72727;
"leftSerif-height" = 100;
};
pos = (241,0);
ref = _smart.hBar;
},
{
piece = {
Height = -9.13461;
"bottomSerif-sharpness" = 100;
};
pos = (71,50);
ref = _smart.vBar;
},
{
closed = 1;
nodes = (
(414,405,o),
(237,206,o),
(173,123,c),
(71,57,l),
(71,23,o),
(58,4,o),
(67,4,cs),
(79,4,o),
(171,59,o),
(181,72,cs),
(230,135,o),
(393,312,o),
(468,408,c),
(452,443,l)
);
}
);
width = 600;
}
);
unicode = 110;
},
{
color = 7;
glyphname = o;
kernLeft = o;
kernRight = o;
lastChange = "2024-05-21 07:05:18 +0000";
layers = (
{
anchors = (
{
name = bottom;
pos = (293,-16);
},
{
name = top;
pos = (293,481);
}
);
backgroundImage = {
imagePath = "../reference/correction/N-small-o.png";
locked = 1;
pos = (-162,-836);
scale = (16.4,16.4);
};
hints = (
{
origin = (0,8);
target = (1,2);
type = Stem;
},
{
origin = (1,8);
target = (0,2);
type = Stem;
},
{
horizontal = 1;
origin = (1,5);
target = (0,5);
type = Stem;
},
{
horizontal = 1;
origin = (0,11);
target = (1,11);
type = Stem;
}
);
layerId = m01;
shapes = (
{
closed = 1;
nodes = (
(460,-37,o),
(555,68,o),
(555,249,cs),
(555,430,o),
(460,534,o),
(293,534,cs),
(126,534,o),
(31,430,o),
(31,249,cs),
(31,68,o),
(126,-37,o),
(293,-37,cs)
);
},
{
closed = 1;
nodes = (
(176,16,o),
(150,92,o),
(150,248,cs),
(150,404,o),
(176,481,o),
(293,481,cs),
(410,481,o),
(436,404,o),
(436,248,cs),
(436,92,o),
(410,16,o),
(293,16,cs)
);
},
{
piece = {
Width = 80.66666;
"leftSerif-flatness" = 100;
"rightSerif-flatness" = 100;
};
pos = (98,244);
ref = _smart.hBar;
}
);
width = 590;
}
);
unicode = 111;
},
{
glyphname = oslash;
kernLeft = o;
kernRight = o;
lastChange = "2024-05-21 05:58:34 +0000";
layers = (
{
layerId = m01;
shapes = (
{
ref = o;
},
{
closed = 1;
nodes = (
(319,251,l),
(519,616,ls),
(526,629,o),
(458,620,o),
(456,616,cs),
(256,251,l)
);
},
{
closed = 1;
nodes = (
(249,251,l),
(65,-84,ls),
(57,-98,o),
(126,-87,o),
(128,-84,cs),
(312,251,l)
);
}
);
width = 590;
}
);
unicode = 248;
},
{
glyphname = oe;
kernLeft = o;
kernRight = RxB;
lastChange = "2024-05-21 10:46:47 +0000";
layers = (
{
hints = (
{
origin = (0,22);
target = (1,2);
type = Stem;
},
{
origin = (1,8);
target = (0,2);
type = Stem;
},
{
horizontal = 1;
origin = (1,5);
target = (0,19);
type = Stem;
},
{
horizontal = 1;
origin = (0,25);
target = (1,11);
type = Stem;
},
{
origin = (0,3);
target = (0,6);
type = Stem;
}
);
layerId = m01;
shapes = (
{
closed = 1;
nodes = (
(430,-37,o),
(522,37,o),
(549,190,c),
(549,15,l),
(549,-20,l),
(659,50,l),
(659,501,ls),
(659,512,o),
(656,533,o),
(650,536,cs),
(642,540,o),
(539,456,o),
(539,446,cs),
(539,439,o),
(549,440,o),
(549,393,cs),
(549,291,l),
(530,449,o),
(430,534,o),
(293,534,cs),
(126,534,o),
(31,430,o),
(31,249,cs),
(31,68,o),
(126,-37,o),
(293,-37,cs)
);
},
{
closed = 1;
nodes = (
(176,16,o),
(150,92,o),
(150,248,cs),
(150,404,o),
(176,481,o),
(293,481,cs),
(410,481,o),
(436,404,o),
(436,248,cs),
(436,92,o),
(410,16,o),
(293,16,cs)
);
},
{
piece = {
Width = 80.66666;
"leftSerif-flatness" = 100;
"rightSerif-flatness" = 100;
};
pos = (98,244);
ref = _smart.hBar;
},
{
alignment = -1;
piece = {
Height = 15;
"bottomSerif-length" = -40;
"bottomSerif-sharpness" = 0;
};
pos = (894,0);
ref = _smart.vBar;
},
{
alignment = -1;
piece = {
"leftSerif-flatness" = 100;
};
pos = (767,0);
ref = _smart.hBar;
},
{
alignment = -1;
piece = {
Height = -68.13811;
"bottomSerif-length" = -20;
"bottomSerif-sharpness" = 0;
"topSerif-flatness" = 20;
"topSerif-length" = 100;
"topSerif-sharpness" = 80;
};
pos = (732,0);
ref = _smart.vBar;
},
{
closed = 1;
nodes = (
(549,-26,o),
(535,-45,o),
(544,-45,cs),
(553,-45,o),
(650,19,o),
(659,35,cs),
(690,91,o),
(714,159,o),
(731,213,c),
(842,318,l),
(842,401,o),
(810,338,o),
(713,291,c),
(723,278,o),
(697,186,o),
(659,110,c),
(549,5,l)
);
}
);
width = 1030;
},
{
anchors = (
{
name = top;
pos = (293,481);
}
);
associatedMasterId = m01;
hints = (
{
origin = (0,8);
target = (1,2);
type = Stem;
},
{
origin = (1,8);
target = (0,2);
type = Stem;
},
{
horizontal = 1;
origin = (1,5);
target = (0,5);
type = Stem;
},
{
horizontal = 1;
origin = (0,11);
target = (1,11);
type = Stem;
}
);
layerId = "BBBFAFB3-8534-4222-B6A7-D298774DADD2";
name = ref;
shapes = (
{
closed = 1;
nodes = (
(460,-37,o),
(555,68,o),
(555,249,cs),
(555,430,o),
(460,534,o),
(293,534,cs),
(126,534,o),
(31,430,o),
(31,249,cs),
(31,68,o),
(126,-37,o),
(293,-37,cs)
);
},
{
closed = 1;
nodes = (
(176,16,o),
(150,92,o),
(150,248,cs),
(150,404,o),
(176,481,o),
(293,481,cs),
(410,481,o),
(436,404,o),
(436,248,cs),
(436,92,o),
(410,16,o),
(293,16,cs)
);
},
{
piece = {
Width = 80.66666;
"leftSerif-flatness" = 100;
"rightSerif-flatness" = 100;
};
pos = (98,244);
ref = _smart.hBar;
},
{
alignment = -1;
piece = {
Height = 15;
"bottomSerif-length" = -40;
"bottomSerif-sharpness" = 0;
};
pos = (941,0);
ref = _smart.vBar;
},
{
alignment = -1;
pos = (814,0);
ref = _smart.hBar;
},
{
alignment = -1;
piece = {
Height = 7.61946;
"bottomSerif-sharpness" = 100;
"topSerif-length" = 0;
};
pos = (546,15);
ref = _smart.vBar;
},
{
alignment = -1;
piece = {
Height = -68.13811;
"bottomSerif-length" = -20;
"bottomSerif-sharpness" = 0;
"topSerif-flatness" = 20;
"topSerif-length" = 100;
"topSerif-sharpness" = 80;
};
pos = (746,0);
ref = _smart.vBar;
},
{
closed = 1;
nodes = (
(546,-26,o),
(532,-45,o),
(541,-45,cs),
(550,-45,o),
(647,19,o),
(656,35,cs),
(687,91,o),
(728,159,o),
(745,213,c),
(856,318,l),
(856,401,o),
(824,338,o),
(727,291,c),
(737,278,o),
(694,186,o),
(656,110,c),
(546,5,l)
);
}
);
visible = 1;
width = 1190;
}
);
unicode = 339;
},
{
color = 7;
glyphname = p;
kernLeft = LxB;
kernRight = p;
lastChange = "2024-05-21 11:12:28 +0000";
layers = (
{
anchors = (
{
name = tail;
pos = (483,620);
}
);
annotations = (
{
angle = -62.15242;
pos = (175.656,92);
type = Arrow;
}
);
backgroundImage = {
imagePath = "../reference/correction/N-small-p.png";
locked = 1;
pos = (-208,-813);
scale = (16.4,16.4);
};
hints = (
{
horizontal = 1;
origin = (2,15);
target = (2,8);
type = Stem;
},
{
origin = (2,5);
target = (2,18);
type = Stem;
}
);
layerId = m01;
shapes = (
{
piece = {
Height = 15;
"bottomSerif-length" = -40;
"bottomSerif-sharpness" = 0;
};
pos = (70,0);
ref = _smart.vBar;
},
{
piece = {
Width = 68.33334;
"leftSerif-flatness" = 100;
"rightSerif-length" = 3;
};
pos = (117,0);
ref = _smart.hBar;
},
{
closed = 1;
nodes = (
(406,481,o),
(282,419,o),
(282,399,cs),
(282,379,o),
(402,273,o),
(402,213,cs),
(402,182,o),
(369,151,o),
(333,151,cs),
(272,151,o),
(180,242,o),
(180,282,c),
(118,194,l),
(207,97,o),
(217,87,o),
(285,87,cs),
(403,87,o),
(512,203,o),
(512,278,cs),
(512,329,o),
(460,388,o),
(393,450,c),
(425,476,o),
(466,502,o),
(484,528,cs),
(489,535,o),
(488,545,o),
(473,533,cs)
);
}
);
width = 530;
}
);
unicode = 112;
},
{
color = 7;
glyphname = q;
kernLeft = q;
kernRight = RxB;
lastChange = "2024-05-21 11:12:31 +0000";
layers = (
{
annotations = (
{
angle = -18.89484;
pos = (173,417);
type = Arrow;
},
{
angle = 206.85755;
pos = (100,279);
type = Arrow;
},
{
angle = 249.51939;
pos = (400,38);
type = Arrow;
}
);
backgroundImage = {
imagePath = "../reference/correction/N-small-q.png";
locked = 1;
pos = (-208,-810);
scale = (16.4,16.4);
};
hints = (
{
origin = (1,5);
target = (1,18);
type = Stem;
},
{
horizontal = 1;
origin = (1,8);
target = (1,15);
type = Stem;
}
);
layerId = m01;
shapes = (
{
piece = {
Height = 15;
"bottomSerif-length" = -40;
"bottomSerif-sharpness" = 0;
};
pos = (416,0);
ref = _smart.vBar;
},
{
closed = 1;
nodes = (
(28,402,o),
(95,311,o),
(146,290,c),
(105,253,o),
(74,200,o),
(74,159,cs),
(74,67,o),
(152,-16,o),
(245,-16,cs),
(331,-16,o),
(422,54,o),
(430,91,c),
(416,138,l),
(416,90,o),
(333,54,o),
(280,54,cs),
(209,54,o),
(190,118,o),
(190,179,cs),
(190,283,o),
(245,308,o),
(245,324,cs),
(245,339,o),
(127,417,o),
(150,482,c),
(125,482,o),
(28,423,o),
(28,410,cs)
);
},
{
piece = {
Width = 57.33333;
"leftSerif-sharpness" = 100;
"rightSerif-flatness" = 100;
"rightSerif-sharpness" = 0;
};
pos = (128,443);
ref = _smart.hBar;
}
);
width = 550;
}
);
unicode = 113;
},
{
color = 7;
glyphname = r;
kernLeft = r;
kernRight = r;
lastChange = "2024-05-21 10:46:57 +0000";
layers = (
{
anchors = (
{
name = bottom;
pos = (171,-32);
},
{
name = top;
pos = (148,662);
}
);
annotations = (
{
angle = 52.6764;
pos = (153,343);
type = Arrow;
},
{
angle = 231.56876;
pos = (126,294);
type = Arrow;
}
);
backgroundImage = {
imagePath = "../reference/correction/N-small-r.png";
locked = 1;
pos = (-342,-850);
scale = (16.4,16.4);
};
hints = (
{
origin = (0,29);
target = (0,36);
type = Stem;
},
{
origin = (0,19);
target = (0,9);
type = Stem;
}
);
layerId = m01;
shapes = (
{
closed = 1;
nodes = (
(292,394,o),
(289,415,o),
(283,418,cs),
(278,420,o),
(215,376,o),
(174,350,c),
(179,358,o),
(183,372,o),
(183,386,c),
(183,685,ls),
(183,696,o),
(180,717,o),
(174,720,cs),
(166,724,o),
(27,640,o),
(27,630,cs),
(27,618,o),
(73,636,o),
(73,577,cs),
(73,318,ls),
(73,296,o),
(47,275,o),
(58,275,cs),
(63,275,o),
(130,312,o),
(161,332,cs),
(175,341,o),
(182,309,o),
(182,275,cs),
(182,51,ls),
(182,-36,o),
(33,-80,o),
(69,-80,cs),
(84,-80,o),
(292,0,o),
(292,81,cs),
(292,383,ls)
);
}
);
width = 320;
},
{
associatedMasterId = m01;
backgroundImage = {
imagePath = "../reference/correction/N-small-r.png";
locked = 1;
pos = (-372,-850);
scale = (16.4,16.4);
};
layerId = "EAA5997B-CAD5-4453-8730-3A1506242FA3";
name = backup;
shapes = (
{
closed = 1;
nodes = (
(167,31,l),
(209,31,l),
(209,81,l),
(167,81,l)
);
},
{
piece = {
Height = -54.49633;
"bottomSerif-length" = 176.86438;
"bottomSerif-sharpness" = 0;
};
pos = (144,30);
ref = _smart.vBar;
},
{
piece = {
Height = -47.82441;
"bottomSerif-length" = -15.37636;
"bottomSerif-sharpness" = 0;
};
pos = (35,314);
ref = _smart.vBar;
}
);
visible = 1;
width = 270;
}
);
unicode = 114;
},
{
color = 7;
glyphname = s;
kernLeft = LxB;
kernRight = s;
lastChange = "2024-05-21 10:47:09 +0000";
layers = (
{
anchors = (
{
name = ogonek;
pos = (468,0);
},
{
name = top;
pos = (326,438);
}
);
backgroundImage = {
imagePath = "../reference/scan/N-small-s.jpg";
locked = 1;
pos = (-335,-868);
scale = (12,12);
};
layerId = m01;
shapes = (
{
closed = 1;
nodes = (
(86,230,l),
(166,230,l),
(166,287,l),
(86,287,l)
);
},
{
piece = {
Height = 15;
"bottomSerif-length" = -30;
"bottomSerif-sharpness" = 0;
};
pos = (73,0);
ref = _smart.vBar;
},
{
piece = {
Height = -87.5;
"bottomSerif-length" = -40;
"bottomSerif-sharpness" = 0;
};
pos = (428,213);
ref = _smart.vBar;
},
{
piece = {
Height = -79.32692;
"bottomSerif-length" = -40;
"bottomSerif-sharpness" = 0;
"topSerif-length" = 0;
};
pos = (255,0);
ref = _smart.vBar;
},
{
piece = {
Width = 21.33333;
"leftSerif-sharpness" = 100;
};
pos = (311,0);
ref = _smart.hBar;
},
{
piece = {
Width = 77.33334;
"leftSerif-sharpness" = 100;
"rightSerif-flatness" = 100;
};
pos = (127,434);
ref = _smart.hBar;
}
);
width = 580;
}
);
unicode = 115;
},
{
glyphname = germandbls;
kernLeft = LxB;
kernRight = z;
lastChange = "2024-05-21 10:47:30 +0000";
layers = (
{
layerId = m01;
shapes = (
{
piece = {
Height = 15;
"bottomSerif-length" = -30;
"bottomSerif-sharpness" = 0;
};
pos = (73,0);
ref = _smart.vBar;
},
{
piece = {
Width = 29.0055;
"leftSerif-sharpness" = 100;
"rightSerif-flatness" = 100;
};
pos = (127,434);
ref = _smart.hBar;
},
{
closed = 1;
nodes = (
(314,421,l),
(356,396,o),
(397,359,o),
(429,313,c),
(429,342,l),
(369,300,o),
(269,228,o),
(269,215,cs),
(269,197,o),
(456,112,o),
(456,46,cs),
(456,9,o),
(398,-26,o),
(337,-77,cs),
(315,-95,o),
(323,-99,o),
(332,-94,cs),
(482,-12,o),
(559,89,o),
(559,127,cs),
(559,154,o),
(379,242,o),
(379,264,cs),
(379,284,o),
(521,367,o),
(521,389,cs),
(521,398,o),
(394,525,o),
(385,525,cs),
(374,525,o),
(341,491,o),
(314,473,c)
);
}
);
width = 580;
}
);
unicode = 223;
},
{
color = 7;
glyphname = t;
kernLeft = LAB;
kernRight = RxB;
lastChange = "2024-05-21 07:28:34 +0000";
layers = (
{
anchors = (
{
name = bottom;
pos = (237,0);
},
{
name = ogonek;
pos = (353,47);
},
{
name = top;
pos = (288,603);
}
);
backgroundImage = {
imagePath = "../reference/correction/N-small-t.png";
locked = 1;
pos = (-195,-752);
scale = (16.4,16.4);
};
layerId = m01;
shapes = (
{
piece = {
Height = 103.29888;
"bottomSerif-length" = -40;
"bottomSerif-sharpness" = 0;
};
pos = (72,0);
ref = _smart.vBar;
},
{
piece = {
Height = 0;
"bottomSerif-length" = 163.04741;
"bottomSerif-sharpness" = 80;
};
pos = (310,13);
ref = _smart.vBar;
},
{
closed = 1;
nodes = (
(260,353,o),
(211,271,o),
(164,229,c),
(169,185,l),
(216,229,o),
(288,319,o),
(320,379,c),
(312,407,l)
);
}
);
width = 450;
}
);
unicode = 116;
},
{
glyphname = tcedilla;
kernLeft = LAB;
kernRight = RxB;
lastChange = "2024-05-21 10:48:01 +0000";
layers = (
{
layerId = m01;
shapes = (
{
ref = t;
},
{
closed = 1;
nodes = (
(304,-16,o),
(284,-39,o),
(284,-43,cs),
(284,-53,o),
(389,-64,o),
(389,-105,cs),
(389,-133,o),
(339,-156,o),
(324,-170,cs),
(307,-186,o),
(315,-185,o),
(331,-179,cs),
(386,-159,o),
(449,-125,o),
(449,-87,cs),
(449,-55,o),
(398,-30,o),
(333,-33,c),
(347,-18,o),
(393,41,o),
(404,70,c),
(321,33,l)
);
}
);
width = 450;
}
);
unicode = 355;
},
{
color = 7;
glyphname = u;
kernLeft = u;
kernRight = u;
lastChange = "2024-05-21 10:48:08 +0000";
layers = (
{
anchors = (
{
name = bottom;
pos = (292,0);
},
{
name = ogonek;
pos = (474,18);
},
{
name = top;
pos = (302,506);
}
);
backgroundImage = {
imagePath = "../reference/correction/N-small-u.png";
locked = 1;
pos = (-168,-744);
scale = (16.4,16.4);
};
hints = (
{
origin = (1,7);
target = (1,14);
type = Stem;
}
);
layerId = m01;
shapes = (
{
piece = {
Width = 30.66667;
"rightSerif-flatness" = 100;
"rightSerif-sharpness" = 0;
};
pos = (238,0);
ref = _smart.hBar;
},
{
closed = 1;
nodes = (
(544,349,l),
(544,460,o),
(424,559,o),
(292,559,cs),
(160,559,o),
(40,460,o),
(40,349,c),
(40,94,ls),
(40,27,o),
(26,9,o),
(35,9,cs),
(47,9,o),
(150,65,o),
(150,102,cs),
(150,349,l),
(151,424,o),
(215,506,o),
(302,506,cs),
(388,506,o),
(434,424,o),
(434,349,c)
);
},
{
piece = {
Height = -39.90385;
"bottomSerif-length" = -25.74984;
"bottomSerif-sharpness" = 0;
"topSerif-flatness" = 100;
};
pos = (434,0);
ref = _smart.vBar;
},
{
piece = {
Height = -51.92308;
"bottomSerif-length" = -13.95404;
"bottomSerif-sharpness" = 30;
"topSerif-length" = 35;
};
pos = (246,36);
ref = _smart.vBar;
}
);
width = 570;
}
);
unicode = 117;
},
{
color = 7;
glyphname = v;
kernLeft = v;
kernRight = v;
lastChange = "2024-05-21 11:12:37 +0000";
layers = (
{
backgroundImage = {
imagePath = "../reference/correction/N-small-v.png";
locked = 1;
pos = (-215,-746);
scale = (16.4,16.4);
};
layerId = m01;
shapes = (
{
piece = {
Height = 15;
"bottomSerif-flatness" = 100;
"bottomSerif-sharpness" = 0;
};
pos = (79,0);
ref = _smart.vBar;
},
{
piece = {
Width = 83.33333;
"rightSerif-length" = 3;
};
pos = (70,0);
ref = _smart.hBar;
},
{
closed = 1;
nodes = (
(476,539,o),
(367,456,o),
(367,443,cs),
(367,437,o),
(400,419,o),
(400,392,cs),
(400,348,o),
(224,118,o),
(161,29,c),
(219,17,l),
(392,220,o),
(536,456,o),
(536,464,cs),
(536,474,o),
(493,539,o),
(485,539,cs)
);
}
);
width = 560;
}
);
unicode = 118;
},
{
color = 7;
glyphname = w;
kernLeft = LxB;
kernRight = RxB;
lastChange = "2024-05-21 06:06:17 +0000";
layers = (
{
anchors = (
{
name = top;
pos = (320,480);
}
);
backgroundImage = {
imagePath = "../reference/correction/N-small-w.png";
locked = 1;
pos = (-204,-753);
scale = (16.4,16.4);
};
layerId = m01;
shapes = (
{
piece = {
Height = 1.79196;
"bottomSerif-length" = -40;
"bottomSerif-sharpness" = 0;
"topSerif-length" = 0;
};
pos = (443,27);
ref = _smart.vBar;
},
{
piece = {
Width = 8.58586;
"leftSerif-height" = 100;
};
pos = (300,0);
ref = _smart.hBar;
},
{
closed = 1;
nodes = (
(369,280,l),
(387,312,o),
(433,369,o),
(448,406,c),
(438,431,l),
(417,400,o),
(387,354,o),
(357,316,c)
);
},
{
piece = {
Height = -60.57692;
"bottomSerif-length" = -40;
"bottomSerif-sharpness" = 0;
"topSerif-length" = 0;
};
pos = (261,122);
ref = _smart.vBar;
},
{
piece = {
Height = -14.90385;
"bottomSerif-length" = 0;
"bottomSerif-sharpness" = 100;
};
pos = (76,62);
ref = _smart.vBar;
},
{
closed = 1;
nodes = (
(253,205,o),
(201,150,o),
(180,125,c),
(76,50,l),
(76,16,o),
(63,4,o),
(71,4,cs),
(86,4,o),
(179,70,o),
(186,81,cs),
(204,109,o),
(248,155,o),
(272,188,c),
(267,227,l)
);
}
);
width = 580;
}
);
unicode = 119;
},
{
color = 7;
glyphname = x;
kernLeft = LxB;
kernRight = x;
lastChange = "2024-05-21 11:12:40 +0000";
layers = (
{
backgroundImage = {
imagePath = "../reference/correction/N-small-x.png";
locked = 1;
pos = (-252,-744);
scale = (16.4,16.4);
};
layerId = m01;
shapes = (
{
piece = {
Height = 15;
"bottomSerif-flatness" = 0;
"bottomSerif-sharpness" = 40;
};
pos = (72,0);
ref = _smart.vBar;
},
{
closed = 1;
nodes = (
(550,421,o),
(483,391,o),
(451,347,cs),
(406,286,o),
(277,73,o),
(228,34,cs),
(214,23,o),
(173,-16,o),
(185,-16,cs),
(489,-16,ls),
(501,-16,o),
(551,26,o),
(563,42,cs),
(568,49,o),
(534,39,o),
(521,39,cs),
(297,39,l),
(328,70,o),
(413,176,o),
(460,267,cs),
(499,343,o),
(535,382,o),
(569,412,cs),
(577,419,o),
(571,421,o),
(563,421,cs)
);
},
{
closed = 1;
nodes = (
(387,549,o),
(278,466,o),
(278,453,cs),
(278,447,o),
(311,429,o),
(311,402,cs),
(311,358,o),
(206,167,o),
(173,132,c),
(182,34,l),
(182,67,o),
(447,424,o),
(447,474,cs),
(447,484,o),
(404,549,o),
(396,549,cs)
);
}
);
width = 590;
}
);
unicode = 120;
},
{
color = 7;
glyphname = y;
kernLeft = y;
kernRight = RxB;
lastChange = "2024-05-21 10:48:28 +0000";
layers = (
{
anchors = (
{
name = bottom;
pos = (246,0);
},
{
name = top;
pos = (292,486);
}
);
backgroundImage = {
imagePath = "../reference/scan/N-small-y.jpg";
locked = 1;
pos = (-337,-883);
scale = (12,12);
};
hints = (
{
origin = (2,17);
target = (2,8);
type = Stem;
},
{
horizontal = 1;
origin = (2,11);
target = (2,14);
type = Stem;
}
);
layerId = m01;
shapes = (
{
piece = {
Height = 15;
"bottomSerif-length" = -40;
"bottomSerif-sharpness" = 0;
};
pos = (383,0);
ref = _smart.vBar;
},
{
piece = {
Width = 56.66667;
"leftSerif-flatness" = 50;
"leftSerif-sharpness" = 50;
"rightSerif-flatness" = 100;
"rightSerif-sharpness" = 0;
};
pos = (78,0);
ref = _smart.hBar;
},
{
closed = 1;
nodes = (
(17,-43,o),
(22,-48,o),
(79,2,cs),
(220,127,o),
(322,159,o),
(322,179,cs),
(322,202,o),
(189,223,o),
(189,324,cs),
(189,435,o),
(339,508,o),
(382,519,cs),
(412,526,o),
(412,535,o),
(374,535,cs),
(296,535,o),
(65,485,o),
(65,313,cs),
(65,237,o),
(125,167,o),
(205,157,c),
(135,103,o),
(45,13,o),
(26,-26,cs)
);
}
);
width = 520;
}
);
unicode = 121;
},
{
color = 7;
glyphname = z;
kernLeft = LxB;
kernRight = z;
lastChange = "2024-05-21 10:47:32 +0000";
layers = (
{
anchors = (
{
name = bottom;
pos = (271,0);
},
{
name = top;
pos = (282,460);
}
);
backgroundImage = {
imagePath = "../reference/correction/N-small-z.png";
locked = 1;
pos = (-178,-717);
scale = (16.4,16.4);
};
layerId = m01;
shapes = (
{
piece = {
Height = 15;
"bottomSerif-length" = -40;
"bottomSerif-sharpness" = 0;
};
pos = (71,0);
ref = _smart.vBar;
},
{
piece = {
Width = 49.33333;
"leftSerif-sharpness" = 100;
};
pos = (126,0);
ref = _smart.hBar;
},
{
closed = 1;
nodes = (
(253,455,o),
(362,387,o),
(414,339,c),
(414,360,l),
(355,305,o),
(275,248,o),
(275,227,cs),
(275,193,o),
(480,39,o),
(431,14,c),
(420,28,l),
(469,18,o),
(556,52,o),
(556,73,cs),
(556,107,o),
(385,261,o),
(385,287,cs),
(385,325,o),
(508,409,o),
(508,423,cs),
(508,435,o),
(393,534,o),
(384,534,cs),
(369,534,o),
(253,470,o),
(253,460,cs)
);
}
);
width = 580;
}
);
unicode = 122;
},
{
color = 7;
glyphname = zero;
lastChange = "2024-05-20 23:43:29 +0000";
layers = (
{
backgroundImage = {
imagePath = "../reference/@Kawlen/N-0.png";
locked = 1;
pos = (-352,-1150);
scale = (28.4,28.4);
};
hints = (
{
origin = (0,8);
target = (1,2);
type = Stem;
},
{
origin = (1,8);
target = (0,2);
type = Stem;
},
{
horizontal = 1;
origin = (1,5);
target = (0,5);
type = Stem;
},
{
horizontal = 1;
origin = (0,11);
target = (1,11);
type = Stem;
}
);
layerId = m01;
shapes = (
{
closed = 1;
nodes = (
(503,-37,o),
(619,95,o),
(619,326,cs),
(619,557,o),
(503,689,o),
(326,689,cs),
(149,689,o),
(33,557,o),
(33,326,cs),
(33,95,o),
(149,-37,o),
(326,-37,cs)
);
},
{
closed = 1;
nodes = (
(194,16,o),
(152,121,o),
(152,326,cs),
(152,531,o),
(194,636,o),
(326,636,cs),
(458,636,o),
(500,531,o),
(500,326,cs),
(500,121,o),
(458,16,o),
(326,16,cs)
);
}
);
width = 650;
}
);
unicode = 48;
},
{
color = 7;
glyphname = one;
lastChange = "2024-05-20 23:43:51 +0000";
layers = (
{
backgroundImage = {
imagePath = "../reference/@Kawlen/N-1.png";
locked = 1;
pos = (-534,-1139);
scale = (28.4,28.4);
};
layerId = m01;
shapes = (
{
piece = {
"bottomSerif-length" = 0;
"bottomSerif-sharpness" = 100;
};
pos = (65,0);
ref = _smart.vBar;
},
{
closed = 1;
nodes = (
(65,-35,l),
(123,-35,o),
(359,209,o),
(370,241,cs),
(373,251,o),
(371,264,o),
(356,253,cs),
(275,194,o),
(163,106,o),
(65,60,c)
);
}
);
width = 390;
}
);
unicode = 49;
},
{
color = 7;
glyphname = two;
lastChange = "2024-05-20 23:44:08 +0000";
layers = (
{
backgroundImage = {
imagePath = "../reference/@Kawlen/N-2.png";
locked = 1;
pos = (-425,-1150);
scale = (28.4,28.4);
};
layerId = m01;
shapes = (
{
piece = {
"bottomSerif-length" = 0;
"bottomSerif-sharpness" = 100;
};
pos = (65,0);
ref = _smart.vBar;
},
{
closed = 1;
nodes = (
(65,-35,l),
(75,-35,o),
(158,18,o),
(175,35,cs),
(271,131,o),
(344,216,o),
(363,237,c),
(473,338,l),
(473,348,o),
(469,357,o),
(462,357,cs),
(455,357,o),
(375,293,o),
(329,268,c),
(311,233,o),
(235,145,o),
(175,89,c),
(65,60,l)
);
},
{
piece = {
Height = -62.01923;
"bottomSerif-length" = -40;
"topSerif-length" = 100;
"topSerif-sharpness" = 100;
};
pos = (363,0);
ref = _smart.vBar;
}
);
width = 500;
}
);
unicode = 50;
},
{
color = 7;
glyphname = three;
lastChange = "2024-05-20 23:44:02 +0000";
layers = (
{
backgroundImage = {
imagePath = "../reference/@Kawlen/N-3.png";
locked = 1;
pos = (-376,-1140);
scale = (28.4,28.4);
};
layerId = m01;
shapes = (
{
piece = {
Height = 52.64423;
"bottomSerif-length" = 0;
"bottomSerif-sharpness" = 100;
};
pos = (65,99);
ref = _smart.vBar;
},
{
closed = 1;
nodes = (
(65,64,l),
(75,64,o),
(158,119,o),
(175,134,cs),
(252,203,o),
(360,305,o),
(379,326,c),
(363,372,l),
(345,337,o),
(235,244,o),
(175,188,c),
(65,159,l)
);
},
{
piece = {
Height = 90.38461;
"bottomSerif-length" = -40;
"topSerif-length" = 100;
"topSerif-sharpness" = 100;
};
pos = (353,0);
ref = _smart.vBar;
},
{
closed = 1;
nodes = (
(164,378,l),
(225,431,o),
(305,490,o),
(353,561,c),
(463,655,l),
(463,665,o),
(459,674,o),
(452,674,cs),
(445,674,o),
(368,624,o),
(334,601,c),
(316,566,o),
(216,468,o),
(164,429,c)
);
}
);
width = 490;
}
);
unicode = 51;
},
{
color = 7;
glyphname = four;
lastChange = "2024-05-21 02:38:59 +0000";
layers = (
{
backgroundImage = {
imagePath = "../reference/@Kawlen/N-4.png";
locked = 1;
pos = (-349,-1158);
scale = (28.4,28.4);
};
layerId = m01;
shapes = (
{
closed = 1;
nodes = (
(134,670,o),
(21,611,o),
(21,599,cs),
(21,591,o),
(209,435,o),
(226,435,cs),
(254,435,o),
(329,504,o),
(422,575,c),
(532,675,l),
(532,689,o),
(526,697,o),
(521,697,cs),
(511,697,o),
(344,561,o),
(289,529,c),
(243,554,o),
(146,670,o),
(140,670,cs)
);
},
{
piece = {
"bottomSerif-length" = -40;
"topSerif-sharpness" = 100;
};
pos = (422,0);
ref = _smart.vBar;
}
);
width = 560;
}
);
unicode = 52;
},
{
color = 7;
glyphname = five;
lastChange = "2024-05-21 02:38:14 +0000";
layers = (
{
backgroundImage = {
imagePath = "../reference/@Kawlen/N-5.png";
locked = 1;
pos = (-320,-1158);
scale = (28.4,28.4);
};
layerId = m01;
shapes = (
{
closed = 1;
nodes = (
(147,670,o),
(27,606,o),
(27,603,cs),
(27,597,o),
(43,589,o),
(43,576,c),
(153,539,l),
(202,480,o),
(243,425,o),
(258,425,cs),
(278,425,o),
(355,503,o),
(435,554,c),
(545,644,l),
(545,658,o),
(539,666,o),
(534,666,cs),
(524,666,o),
(385,559,o),
(316,523,c),
(253,580,o),
(166,670,o),
(153,670,cs)
);
},
{
piece = {
Height = 85.09615;
"bottomSerif-length" = -40;
"topSerif-sharpness" = 100;
};
pos = (435,0);
ref = _smart.vBar;
},
{
piece = {
Height = 95.51282;
"bottomSerif-length" = -40;
"topSerif-sharpness" = 100;
};
pos = (43,0);
ref = _smart.vBar;
}
);
width = 570;
}
);
unicode = 53;
},
{
color = 7;
glyphname = six;
lastChange = "2024-05-21 02:37:51 +0000";
layers = (
{
backgroundImage = {
imagePath = "../reference/@Kawlen/N-6.png";
locked = 1;
pos = (-348,-1171);
scale = (28.4,28.4);
};
layerId = m01;
shapes = (
{
closed = 1;
nodes = (
(147,670,o),
(27,606,o),
(27,603,cs),
(27,597,o),
(43,589,o),
(43,576,c),
(153,539,l),
(187,509,o),
(225,472,o),
(237,449,c),
(347,495,l),
(364,509,o),
(404,534,o),
(435,554,c),
(545,644,l),
(545,658,o),
(539,666,o),
(534,666,cs),
(524,666,o),
(390,580,o),
(304,522,c),
(238,588,o),
(166,670,o),
(153,670,cs)
);
},
{
piece = {
Height = 85.09615;
"bottomSerif-length" = -40;
"topSerif-sharpness" = 100;
};
pos = (435,0);
ref = _smart.vBar;
},
{
piece = {
Height = 95.51282;
"bottomSerif-length" = -40;
"topSerif-sharpness" = 100;
};
pos = (43,0);
ref = _smart.vBar;
},
{
piece = {
Height = -47.11538;
"bottomSerif-length" = -40;
"topSerif-flatness" = 30;
"topSerif-sharpness" = 70;
};
pos = (237,147);
ref = _smart.vBar;
}
);
width = 570;
}
);
unicode = 54;
},
{
color = 7;
glyphname = seven;
lastChange = "2024-05-20 23:45:01 +0000";
layers = (
{
backgroundImage = {
imagePath = "../reference/@Kawlen/N-7.png";
locked = 1;
pos = (-298,-1150);
scale = (28.4,28.4);
};
layerId = m01;
shapes = (
{
closed = 1;
nodes = (
(165,103,l),
(185,91,o),
(285,-29,o),
(310,-29,cs),
(329,-29,o),
(561,173,o),
(561,185,cs),
(561,207,o),
(391,363,o),
(361,363,cs),
(349,363,o),
(251,297,o),
(251,289,cs),
(251,277,o),
(423,180,o),
(464,96,c),
(473,134,l),
(428,94,o),
(373,63,o),
(361,63,cs),
(349,63,o),
(198,219,o),
(171,247,c)
);
},
{
piece = {
"bottomSerif-length" = -40;
};
pos = (63,0);
ref = _smart.vBar;
}
);
width = 580;
}
);
unicode = 55;
},
{
color = 7;
glyphname = eight;
lastChange = "2024-05-21 02:39:21 +0000";
layers = (
{
backgroundImage = {
imagePath = "../reference/@Kawlen/N-8.png";
locked = 1;
pos = (-348,-1146);
scale = (28.4,28.4);
};
layerId = m01;
shapes = (
{
closed = 1;
nodes = (
(165,103,l),
(185,91,o),
(285,-29,o),
(310,-29,cs),
(329,-29,o),
(561,173,o),
(561,185,cs),
(561,207,o),
(208,499,o),
(160,529,c),
(161,404,l),
(222,360,o),
(423,180,o),
(464,96,c),
(473,134,l),
(428,94,o),
(373,63,o),
(361,63,cs),
(349,63,o),
(198,219,o),
(171,247,c)
);
},
{
piece = {
"bottomSerif-length" = -40;
};
pos = (63,0);
ref = _smart.vBar;
},
{
closed = 1;
nodes = (
(438,438,o),
(493,496,o),
(493,508,cs),
(493,530,o),
(332,694,o),
(302,694,cs),
(290,694,o),
(198,634,o),
(198,626,cs),
(198,614,o),
(355,508,o),
(396,419,c),
(390,454,l),
(373,433,o),
(336,408,o),
(314,393,c),
(321,356,l)
);
}
);
width = 580;
}
);
unicode = 56;
},
{
color = 7;
glyphname = nine;
lastChange = "2024-05-21 03:59:02 +0000";
layers = (
{
backgroundImage = {
imagePath = "../reference/@Kawlen/N-9.png";
locked = 1;
pos = (-198,-1154);
scale = (28.4,28.4);
};
layerId = m01;
shapes = (
{
piece = {
Height = -147.82925;
"bottomSerif-length" = -40;
};
pos = (289,344);
ref = _smart.vBar;
},
{
closed = 1;
nodes = (
(566,668,o),
(429,585,o),
(385,550,c),
(335,526,o),
(243,462,o),
(243,452,c),
(378,526,l),
(404,550,o),
(474,586,o),
(474,507,c),
(584,644,l),
(584,660,o),
(581,668,o),
(575,668,cs)
);
},
{
piece = {
Height = 24.51923;
"bottomSerif-length" = 0;
"bottomSerif-sharpness" = 100;
"topSerif-sharpness" = 100;
};
pos = (474,126);
ref = _smart.vBar;
},
{
piece = {
"bottomSerif-length" = -40;
};
pos = (63,0);
ref = _smart.vBar;
},
{
closed = 1;
nodes = (
(165,103,l),
(229,53,o),
(283,-35,o),
(309,-35,cs),
(320,-35,o),
(584,145,o),
(584,161,c),
(474,108,l),
(457,93,o),
(415,66,o),
(382,51,c),
(283,135,o),
(234,182,o),
(165,251,c)
);
}
);
width = 610;
},
{
associatedMasterId = m01;
backgroundImage = {
imagePath = "../reference/@Kawlen/N-9.png";
locked = 1;
pos = (-198,-1154);
scale = (28.4,28.4);
};
layerId = "745786BE-AD71-4CCE-8055-E7344D2A2507";
name = "not-connected";
shapes = (
{
piece = {
Height = -147.82925;
"bottomSerif-length" = -40;
};
pos = (289,344);
ref = _smart.vBar;
},
{
closed = 1;
nodes = (
(566,668,o),
(429,585,o),
(385,550,c),
(335,526,o),
(243,462,o),
(243,452,c),
(378,526,l),
(404,550,o),
(474,586,o),
(474,507,c),
(584,644,l),
(584,660,o),
(581,668,o),
(575,668,cs)
);
},
{
piece = {
Height = 24.51923;
"bottomSerif-length" = 0;
"bottomSerif-sharpness" = 100;
"topSerif-sharpness" = 100;
};
pos = (474,126);
ref = _smart.vBar;
},
{
piece = {
"bottomSerif-length" = -40;
};
pos = (63,0);
ref = _smart.vBar;
},
{
closed = 1;
nodes = (
(163,99,l),
(227,56,o),
(283,-43,o),
(309,-43,cs),
(320,-43,o),
(584,145,o),
(584,161,c),
(474,108,l),
(457,93,o),
(415,66,o),
(382,51,c),
(337,107,o),
(230,203,o),
(217,203,cs),
(208,203,o),
(182,175,o),
(158,146,c)
);
}
);
width = 610;
}
);
unicode = 57;
},
{
glyphname = zero.osf;
lastChange = "2024-05-21 09:49:34 +0000";
layers = (
{
hints = (
{
origin = (0,8);
target = (1,2);
type = Stem;
},
{
origin = (1,8);
target = (0,2);
type = Stem;
},
{
horizontal = 1;
origin = (1,5);
target = (0,5);
type = Stem;
},
{
horizontal = 1;
origin = (0,11);
target = (1,11);
type = Stem;
}
);
layerId = m01;
shapes = (
{
closed = 1;
nodes = (
(423,-37,o),
(515,74,o),
(515,219,cs),
(515,364,o),
(423,474,o),
(273,474,cs),
(123,474,o),
(31,364,o),
(31,219,cs),
(31,74,o),
(123,-37,o),
(273,-37,cs)
);
},
{
closed = 1;
nodes = (
(177,16,o),
(150,101,o),
(150,218,cs),
(150,335,o),
(177,421,o),
(273,421,cs),
(369,421,o),
(396,335,o),
(396,218,cs),
(396,101,o),
(369,16,o),
(273,16,cs)
);
}
);
width = 540;
}
);
},
{
glyphname = one.osf;
lastChange = "2024-05-21 09:15:07 +0000";
layers = (
{
layerId = m01;
shapes = (
{
piece = {
Height = 0;
"bottomSerif-length" = 0;
"bottomSerif-sharpness" = 100;
};
pos = (65,0);
ref = _smart.vBar;
},
{
closed = 1;
nodes = (
(65,-35,l),
(123,-35,o),
(359,209,o),
(370,241,cs),
(373,251,o),
(371,264,o),
(356,253,cs),
(275,194,o),
(163,106,o),
(65,60,c)
);
}
);
width = 390;
}
);
},
{
glyphname = two.osf;
lastChange = "2024-05-21 09:51:58 +0000";
layers = (
{
layerId = m01;
shapes = (
{
piece = {
Height = 0;
"bottomSerif-length" = 0;
"bottomSerif-sharpness" = 100;
};
pos = (65,0);
ref = _smart.vBar;
},
{
closed = 1;
nodes = (
(65,-35,l),
(75,-35,o),
(157,19,o),
(175,35,cs),
(271,119,o),
(296,201,o),
(315,237,c),
(425,338,l),
(425,348,o),
(421,357,o),
(414,357,cs),
(407,357,o),
(341,293,o),
(295,268,c),
(277,233,o),
(235,163,o),
(175,89,c),
(65,60,l)
);
},
{
piece = {
Height = -35.97757;
"bottomSerif-length" = -20;
"topSerif-length" = 100;
"topSerif-sharpness" = 100;
};
pos = (315,-54);
ref = _smart.vBar;
}
);
width = 450;
}
);
},
{
glyphname = three.osf;
lastChange = "2024-05-21 09:22:30 +0000";
layers = (
{
layerId = m01;
shapes = (
{
piece = {
Height = 0;
"bottomSerif-length" = 0;
"bottomSerif-sharpness" = 100;
};
pos = (65,40);
ref = _smart.vBar;
},
{
closed = 1;
nodes = (
(65,5,l),
(75,5,o),
(161,55,o),
(175,75,cs),
(216,134,o),
(322,250,o),
(340,263,c),
(324,302,l),
(306,267,o),
(198,158,o),
(175,122,c),
(65,100,l)
);
},
{
piece = {
Height = 23.55769;
"bottomSerif-length" = -40;
"topSerif-length" = 100;
"topSerif-sharpness" = 100;
};
pos = (315,-44);
ref = _smart.vBar;
},
{
closed = 1;
nodes = (
(164,218,l),
(202,274,o),
(288,353,o),
(315,384,c),
(425,472,l),
(425,482,o),
(421,491,o),
(414,491,cs),
(407,491,o),
(330,437,o),
(296,414,c),
(265,374,o),
(188,302,o),
(164,263,c)
);
}
);
width = 450;
}
);
},
{
glyphname = four.osf;
lastChange = "2024-05-21 09:23:52 +0000";
layers = (
{
layerId = m01;
shapes = (
{
closed = 1;
nodes = (
(125,495,o),
(25,441,o),
(25,429,cs),
(25,421,o),
(193,265,o),
(210,265,cs),
(238,265,o),
(313,334,o),
(372,379,c),
(482,467,l),
(482,481,o),
(476,489,o),
(471,489,cs),
(461,489,o),
(328,391,o),
(273,359,c),
(234,384,o),
(137,495,o),
(131,495,cs)
);
},
{
piece = {
Height = 0;
"bottomSerif-length" = -40;
"topSerif-sharpness" = 100;
};
pos = (372,0);
ref = _smart.vBar;
}
);
width = 510;
}
);
},
{
glyphname = five.osf;
lastChange = "2024-05-21 09:43:25 +0000";
layers = (
{
layerId = m01;
shapes = (
{
closed = 1;
nodes = (
(125,494,o),
(27,434,o),
(27,431,cs),
(27,425,o),
(43,417,o),
(43,404,c),
(153,352,l),
(202,293,o),
(227,255,o),
(242,255,cs),
(262,255,o),
(321,325,o),
(369,375,c),
(482,472,l),
(482,486,o),
(476,494,o),
(471,494,cs),
(461,494,o),
(327,369,o),
(283,333,c),
(220,390,o),
(144,494,o),
(131,494,cs)
);
},
{
piece = {
Height = 2.40385;
"bottomSerif-length" = -40;
"topSerif-sharpness" = 100;
};
pos = (372,0);
ref = _smart.vBar;
},
{
piece = {
Height = 3.36538;
"bottomSerif-length" = -40;
"topSerif-sharpness" = 100;
};
pos = (43,0);
ref = _smart.vBar;
}
);
width = 510;
},
{
associatedMasterId = m01;
layerId = "20132154-7ADA-4A10-AB1F-D10613FBA7A1";
name = ref;
shapes = (
{
ref = four.osf;
}
);
width = 510;
}
);
},
{
glyphname = six.osf;
lastChange = "2024-05-21 09:35:54 +0000";
layers = (
{
layerId = m01;
shapes = (
{
closed = 1;
nodes = (
(147,493,o),
(27,433,o),
(27,430,cs),
(27,424,o),
(43,416,o),
(43,403,c),
(153,366,l),
(219,273,l),
(329,319,l),
(383,390,l),
(493,484,l),
(493,498,o),
(487,506,o),
(482,506,cs),
(472,506,o),
(363,416,o),
(304,349,c),
(238,415,o),
(166,493,o),
(153,493,cs)
);
},
{
piece = {
Height = 8.17308;
"bottomSerif-length" = -40;
"topSerif-sharpness" = 100;
};
pos = (383,0);
ref = _smart.vBar;
},
{
piece = {
Height = 2.40385;
"bottomSerif-length" = -40;
"topSerif-sharpness" = 100;
};
pos = (43,0);
ref = _smart.vBar;
},
{
piece = {
Height = -103.72285;
"bottomSerif-length" = -40;
"topSerif-flatness" = 30;
"topSerif-sharpness" = 70;
};
pos = (219,89);
ref = _smart.vBar;
}
);
width = 520;
},
{
associatedMasterId = m01;
layerId = "2BA2AB59-C2D5-457C-B572-766CE9C61923";
name = ref;
shapes = (
{
ref = five.osf;
}
);
visible = 1;
width = 510;
}
);
},
{
glyphname = seven.osf;
lastChange = "2024-05-21 09:50:10 +0000";
layers = (
{
layerId = m01;
shapes = (
{
closed = 1;
nodes = (
(154,-41,l),
(174,-53,o),
(285,-92,o),
(310,-92,cs),
(329,-92,o),
(517,110,o),
(517,122,cs),
(517,144,o),
(360,271,o),
(330,271,cs),
(318,271,o),
(220,205,o),
(220,197,cs),
(220,185,o),
(379,117,o),
(420,33,c),
(429,71,l),
(384,31,o),
(329,0,o),
(317,0,cs),
(305,0,o),
(187,50,o),
(160,78,c)
);
},
{
piece = {
Height = 25;
"bottomSerif-length" = -40;
"topSerif-length" = 100;
};
pos = (63,-52);
ref = _smart.vBar;
}
);
width = 540;
}
);
},
{
glyphname = eight.osf;
lastChange = "2024-05-21 09:43:53 +0000";
layers = (
{
layerId = m01;
shapes = (
{
closed = 1;
nodes = (
(148,-28,l),
(168,-40,o),
(285,-90,o),
(310,-90,cs),
(329,-90,o),
(511,112,o),
(511,124,cs),
(511,146,o),
(212,266,o),
(164,296,c),
(165,194,l),
(220,162,o),
(361,92,o),
(414,35,c),
(423,73,l),
(402,49,o),
(353,-8,o),
(343,-8,cs),
(314,-8,o),
(181,54,o),
(154,82,c)
);
},
{
piece = {
Height = 25;
"bottomSerif-length" = -40;
};
pos = (63,-52);
ref = _smart.vBar;
},
{
closed = 1;
nodes = (
(423,283,o),
(495,344,o),
(495,356,cs),
(495,378,o),
(361,490,o),
(331,490,cs),
(319,490,o),
(227,430,o),
(227,422,cs),
(227,410,o),
(374,339,o),
(404,293,c),
(408,320,l),
(281,217,l),
(306,191,l)
);
}
);
width = 540;
}
);
},
{
glyphname = nine.osf;
lastChange = "2024-05-21 09:43:56 +0000";
layers = (
{
layerId = m01;
shapes = (
{
piece = {
Height = -131.25;
"bottomSerif-length" = -40;
};
pos = (266,150);
ref = _smart.vBar;
},
{
closed = 1;
nodes = (
(527,500,o),
(406,425,o),
(362,390,c),
(312,366,o),
(220,302,o),
(220,292,c),
(355,366,l),
(381,390,o),
(435,418,o),
(435,339,c),
(545,475,l),
(545,491,o),
(542,500,o),
(536,500,cs)
);
},
{
piece = {
Height = -31.25;
"bottomSerif-length" = 0;
"bottomSerif-sharpness" = 100;
"topSerif-sharpness" = 100;
};
pos = (435,73);
ref = _smart.vBar;
},
{
closed = 1;
nodes = (
(148,-16,l),
(212,-66,o),
(283,-88,o),
(309,-88,cs),
(387,-88,o),
(545,66,o),
(545,108,c),
(435,55,l),
(435,18,o),
(404,-11,o),
(382,-11,cs),
(330,-11,o),
(242,32,o),
(157,101,c)
);
},
{
piece = {
Height = 25;
"bottomSerif-length" = -40;
};
pos = (63,-52);
ref = _smart.vBar;
}
);
width = 570;
}
);
},
{
glyphname = zero.tf;
lastChange = "2024-05-21 00:04:55 +0000";
layers = (
{
hints = (
{
origin = (0,8);
target = (1,2);
type = Stem;
},
{
origin = (1,8);
target = (0,2);
type = Stem;
},
{
horizontal = 1;
origin = (1,5);
target = (0,5);
type = Stem;
},
{
horizontal = 1;
origin = (0,11);
target = (1,11);
type = Stem;
}
);
layerId = m01;
shapes = (
{
closed = 1;
nodes = (
(467,-37,o),
(573,95,o),
(573,326,cs),
(573,557,o),
(467,689,o),
(300,689,cs),
(133,689,o),
(27,557,o),
(27,326,cs),
(27,95,o),
(133,-37,o),
(300,-37,cs)
);
},
{
closed = 1;
nodes = (
(174,16,o),
(146,131,o),
(146,326,cs),
(146,521,o),
(174,636,o),
(300,636,cs),
(426,636,o),
(454,521,o),
(454,326,cs),
(454,131,o),
(426,16,o),
(300,16,cs)
);
}
);
width = 600;
}
);
},
{
glyphname = .notdef;
lastChange = "2024-05-21 08:29:54 +0000";
layers = (
{
anchors = (
{
name = tail;
pos = (366.649,332.022);
}
);
hints = (
{
origin = (1,0);
target = (1,2);
type = Stem;
},
{
horizontal = 1;
origin = (1,8);
target = (1,17);
type = Stem;
},
{
origin = (1,20);
target = (1,5);
type = Stem;
}
);
layerId = m01;
shapes = (
{
closed = 1;
nodes = (
(481,538,l),
(481,115,l),
(118,115,l),
(118,538,l)
);
},
{
closed = 1;
nodes = (
(274,265,l),
(316,292,l),
(316,330,l),
(348,349,o),
(374,368,o),
(374,406,cs),
(374,457,o),
(329,468,o),
(301,468,cs),
(260,468,o),
(234,443,o),
(221,420,cs),
(214,407,o),
(226,414,o),
(231,420,cs),
(251,443,o),
(265,449,o),
(282,449,cs),
(314,449,o),
(328,429,o),
(328,404,cs),
(328,357,o),
(274,329,o),
(274,318,cs)
);
},
{
closed = 1;
nodes = (
(261,214,o),
(291,187,o),
(295,187,cs),
(299,187,o),
(327,217,o),
(327,221,cs),
(327,225,o),
(298,250,o),
(295,250,cs),
(290,250,o),
(261,223,o),
(261,218,cs)
);
},
{
closed = 1;
nodes = (
(274,265,l),
(289,265,o),
(348,308,o),
(363,331,cs),
(366,336,o),
(365,338,o),
(359,334,cs),
(332,309,o),
(308,296,o),
(274,278,c)
);
}
);
width = 600;
}
);
},
{
color = 9;
glyphname = period;
lastChange = "2024-05-21 08:40:18 +0000";
layers = (
{
layerId = m01;
shapes = (
{
closed = 1;
nodes = (
(45,27,o),
(123,-19,o),
(134,-19,cs),
(145,-19,o),
(216,38,o),
(216,71,cs),
(216,75,o),
(189,88,o),
(169,105,cs),
(149,123,o),
(137,137,o),
(132,137,cs),
(120,137,o),
(45,75,o),
(45,63,cs)
);
}
);
width = 260;
}
);
unicode = 46;
},
{
color = 9;
glyphname = comma;
lastChange = "2024-05-21 09:57:06 +0000";
layers = (
{
layerId = m01;
shapes = (
{
closed = 1;
nodes = (
(53,62,o),
(97,9,o),
(139,0,c),
(131,-16,o),
(102,-56,o),
(81,-79,cs),
(69,-92,o),
(84,-94,o),
(94,-88,cs),
(181,-36,o),
(208,49,o),
(208,76,cs),
(208,89,o),
(185,86,o),
(166,101,cs),
(157,107,o),
(123,140,o),
(118,140,cs),
(106,140,o),
(53,83,o),
(53,71,cs)
);
}
);
width = 260;
}
);
unicode = 44;
},
{
color = 9;
glyphname = question;
lastChange = "2024-05-21 04:21:43 +0000";
layers = (
{
hints = (
{
origin = (0,0);
target = (0,2);
type = Stem;
},
{
horizontal = 1;
origin = (0,8);
target = (0,17);
type = Stem;
},
{
origin = (0,20);
target = (0,5);
type = Stem;
}
);
layerId = m01;
shapes = (
{
closed = 1;
nodes = (
(166,185,l),
(276,255,l),
(276,356,l),
(361,405,o),
(428,455,o),
(428,555,cs),
(428,686,o),
(311,716,o),
(238,716,cs),
(130,716,o),
(63,651,o),
(29,590,cs),
(10,557,o),
(41,576,o),
(54,591,cs),
(108,651,o),
(144,665,o),
(188,665,cs),
(271,665,o),
(309,614,o),
(309,550,cs),
(309,425,o),
(166,353,o),
(166,325,cs)
);
},
{
pos = (90,0);
ref = period;
},
{
piece = {
tail = 65;
};
pos = (166,219);
ref = _part.tick;
}
);
width = 460;
}
);
unicode = 63;
},
{
color = 9;
glyphname = questiondown;
lastChange = "2024-05-21 04:21:43 +0000";
layers = (
{
hints = (
{
horizontal = 1;
origin = (0,16);
target = (0,25);
type = Stem;
},
{
origin = (0,28);
target = (0,13);
type = Stem;
},
{
origin = (0,10);
target = (0,0);
type = Stem;
}
);
layerId = m01;
shapes = (
{
closed = 1;
nodes = (
(276,441,l),
(276,451,o),
(270,449,o),
(267,449,cs),
(259,449,o),
(120,353,o),
(120,343,cs),
(120,336,o),
(166,365,o),
(166,306,cs),
(166,289,l),
(71,208,o),
(14,166,o),
(14,71,cs),
(14,-65,o),
(131,-95,o),
(198,-95,cs),
(312,-95,o),
(379,-10,o),
(406,57,cs),
(420,92,o),
(414,100,o),
(383,55,cs),
(345,0,o),
(298,-44,o),
(237,-44,cs),
(171,-44,o),
(133,7,o),
(133,89,cs),
(133,249,o),
(276,301,o),
(276,329,cs)
);
},
{
pos = (90,513);
ref = period;
}
);
width = 460;
},
{
associatedMasterId = m01;
layerId = "F40A8D9B-1706-487B-964B-662D5E56D070";
name = ref;
shapes = (
{
ref = question;
}
);
width = 460;
},
{
associatedMasterId = m01;
layerId = "5647F971-83A2-4DB6-A2ED-B91E1CD0E860";
name = flipped;
shapes = (
{
angle = 180;
pos = (442,621);
ref = question;
}
);
visible = 1;
width = 460;
}
);
unicode = 191;
},
{
glyphname = bullet;
lastChange = "2024-05-21 05:36:00 +0000";
layers = (
{
layerId = m01;
shapes = (
{
closed = 1;
nodes = (
(349,193,o),
(384,226,o),
(384,276,cs),
(384,324,o),
(351,359,o),
(301,359,cs),
(253,359,o),
(218,326,o),
(218,276,cs),
(218,228,o),
(251,193,o),
(301,193,cs)
);
}
);
width = 600;
}
);
unicode = 8226;
},
{
glyphname = numbersign;
lastChange = "2024-05-21 08:41:47 +0000";
layers = (
{
layerId = m01;
shapes = (
{
closed = 1;
nodes = (
(73,-8,ls),
(69,-21,o),
(135,-11,o),
(136,-8,cs),
(320,650,ls),
(323,662,o),
(258,653,o),
(257,650,cs)
);
},
{
closed = 1;
nodes = (
(250,-8,ls),
(246,-21,o),
(312,-11,o),
(313,-8,cs),
(497,650,ls),
(500,662,o),
(435,653,o),
(434,650,cs)
);
},
{
closed = 1;
nodes = (
(142,487,o),
(82,424,o),
(93,425,cs),
(485,465,ls),
(497,466,o),
(547,507,o),
(559,523,cs),
(564,530,o),
(539,526,o),
(517,524,cs),
(170,490,ls)
);
},
{
closed = 1;
nodes = (
(93,246,o),
(33,183,o),
(44,184,cs),
(436,224,ls),
(448,225,o),
(498,266,o),
(510,282,cs),
(515,289,o),
(490,285,o),
(468,283,cs),
(121,249,ls)
);
}
);
width = 600;
}
);
unicode = 35;
},
{
glyphname = slash;
lastChange = "2024-05-21 07:26:18 +0000";
layers = (
{
layerId = m01;
shapes = (
{
closed = 1;
nodes = (
(63,-84,ls),
(57,-98,o),
(125,-87,o),
(126,-84,cs),
(487,720,ls),
(493,734,o),
(426,724,o),
(424,720,cs)
);
}
);
width = 550;
}
);
unicode = 47;
},
{
color = 9;
glyphname = hyphen;
lastChange = "2024-05-21 04:21:47 +0000";
layers = (
{
hints = (
{
horizontal = 1;
origin = (0,3);
target = (0,9);
type = Stem;
}
);
layerId = m01;
shapes = (
{
closed = 1;
nodes = (
(67,264,o),
(7,211,o),
(18,212,cs),
(289,241,ls),
(301,242,o),
(351,273,o),
(363,289,cs),
(368,296,o),
(343,292,o),
(321,290,cs),
(95,267,ls)
);
}
);
width = 370;
}
);
unicode = 45;
},
{
color = 9;
glyphname = endash;
lastChange = "2024-05-21 08:43:35 +0000";
layers = (
{
hints = (
{
horizontal = 1;
origin = (0,1);
target = (0,2);
type = Stem;
}
);
layerId = m01;
shapes = (
{
closed = 1;
nodes = (
(40,228,l),
(320,228,l),
(330,283,l),
(50,283,l)
);
}
);
width = 370;
}
);
unicode = 8211;
},
{
color = 9;
glyphname = emdash;
lastChange = "2024-05-21 08:44:50 +0000";
layers = (
{
hints = (
{
horizontal = 1;
origin = (0,1);
target = (0,2);
type = Stem;
}
);
layerId = m01;
shapes = (
{
closed = 1;
nodes = (
(35,228,l),
(595,228,l),
(605,283,l),
(45,283,l)
);
}
);
width = 640;
}
);
unicode = 8212;
},
{
color = 9;
glyphname = underscore;
lastChange = "2024-05-21 04:21:54 +0000";
layers = (
{
hints = (
{
horizontal = 1;
origin = (0,3);
target = (0,10);
type = Stem;
}
);
layerId = m01;
shapes = (
{
closed = 1;
nodes = (
(44,39,o),
(-1,-16,o),
(16,-16,cs),
(208,-16,l),
(220,-16,o),
(252,19,o),
(257,35,cs),
(260,43,o),
(228,39,o),
(215,39,c),
(51,39,ls)
);
}
);
width = 280;
}
);
unicode = 95;
},
{
color = 9;
glyphname = hyphen.case;
lastChange = "2024-05-21 04:21:54 +0000";
layers = (
{
hints = (
{
horizontal = 1;
origin = (0,3);
target = (0,9);
type = Stem;
}
);
layerId = m01;
shapes = (
{
closed = 1;
nodes = (
(67,359,o),
(7,286,o),
(18,287,cs),
(289,316,ls),
(301,317,o),
(351,368,o),
(363,384,cs),
(368,391,o),
(343,387,o),
(321,385,cs),
(95,362,ls)
);
}
);
width = 370;
}
);
},
{
color = 9;
glyphname = quoteleft;
lastChange = "2024-05-21 08:40:59 +0000";
layers = (
{
layerId = m01;
shapes = (
{
closed = 1;
nodes = (
(84,549,o),
(160,498,o),
(168,498,cs),
(175,498,o),
(243,536,o),
(243,575,cs),
(243,582,o),
(173,608,o),
(160,628,c),
(159,658,o),
(198,705,o),
(211,720,cs),
(217,727,o),
(220,739,o),
(203,727,cs),
(130,677,o),
(84,624,o),
(84,565,cs)
);
}
);
width = 260;
},
{
associatedMasterId = m01;
layerId = "B50F5732-A3DF-4F03-A238-B2496AE0E275";
name = ref;
shapes = (
{
angle = 180;
pos = (295,640);
ref = comma;
}
);
visible = 1;
width = 260;
}
);
unicode = 8216;
},
{
color = 9;
glyphname = at;
lastChange = "2024-05-21 09:55:06 +0000";
layers = (
{
hints = (
{
horizontal = 1;
origin = (0,14);
target = (0,23);
type = Stem;
},
{
origin = (0,26);
target = (0,11);
type = Stem;
},
{
origin = (0,5);
target = (0,32);
type = Stem;
},
{
horizontal = 1;
origin = (0,8);
target = (0,29);
type = Stem;
},
{
origin = (0,39);
target = (0,46);
type = Stem;
}
);
layerId = m01;
shapes = (
{
closed = 1;
nodes = (
(369,512,o),
(366,536,o),
(351,536,cs),
(301,536,o),
(37,284,o),
(37,125,cs),
(37,25,o),
(140,-73,o),
(299,-73,cs),
(513,-73,o),
(642,105,o),
(642,345,cs),
(642,524,o),
(570,729,o),
(393,729,cs),
(222,729,o),
(11,536,o),
(11,412,cs),
(11,342,o),
(77,353,o),
(77,437,cs),
(77,554,o),
(205,681,o),
(335,681,cs),
(514,681,o),
(533,443,o),
(533,337,cs),
(533,76,o),
(417,-20,o),
(292,-20,cs),
(188,-20,o),
(152,46,o),
(152,180,cs),
(152,285,o),
(174,350,o),
(253,431,c),
(257,424,o),
(259,415,o),
(259,393,cs),
(259,145,ls),
(259,132,o),
(249,114,o),
(254,114,cs),
(263,114,o),
(369,157,o),
(369,181,cs),
(369,501,ls)
);
}
);
width = 680;
}
);
unicode = 64;
},
{
color = 9;
glyphname = ampersand;
lastChange = "2024-05-21 03:44:37 +0000";
layers = (
{
hints = (
{
origin = (0,18);
target = (0,39);
type = Stem;
},
{
origin = (0,9);
target = (0,46);
type = Stem;
},
{
origin = (0,21);
target = (0,25);
type = Stem;
},
{
origin = (1,5);
target = (1,24);
type = Stem;
}
);
layerId = m01;
shapes = (
{
closed = 1;
nodes = (
(181,556,o),
(178,577,o),
(172,580,cs),
(164,584,o),
(25,500,o),
(25,490,cs),
(25,478,o),
(71,496,o),
(71,437,cs),
(71,215,ls),
(71,179,o),
(57,158,o),
(71,158,cs),
(84,158,o),
(173,235,o),
(220,316,c),
(220,161,o),
(214,143,o),
(220,143,cs),
(235,143,o),
(304,153,o),
(372,193,cs),
(432,228,o),
(483,277,o),
(483,318,cs),
(483,685,ls),
(483,696,o),
(480,717,o),
(474,720,cs),
(466,724,o),
(327,640,o),
(327,630,cs),
(327,618,o),
(373,636,o),
(373,577,cs),
(373,280,l),
(373,225,o),
(341,193,o),
(330,193,c),
(330,413,ls),
(330,428,o),
(319,435,o),
(311,435,cs),
(286,435,o),
(264,397,o),
(181,302,c),
(181,545,ls)
);
},
{
closed = 1;
nodes = (
(642,494,o),
(639,518,o),
(631,518,cs),
(620,518,o),
(583,469,o),
(532,413,cs),
(502,380,o),
(476,350,o),
(450,336,c),
(460,316,l),
(488,338,o),
(518,369,o),
(529,369,cs),
(552,369,o),
(554,215,o),
(448,110,cs),
(345,9,o),
(198,-43,o),
(198,-53,cs),
(199,-67,o),
(497,14,o),
(592,169,cs),
(639,246,o),
(642,388,o),
(642,441,cs)
);
}
);
width = 670;
},
{
associatedMasterId = m01;
hints = (
{
origin = (0,18);
target = (0,39);
type = Stem;
},
{
origin = (0,9);
target = (0,46);
type = Stem;
},
{
origin = (0,21);
target = (0,25);
type = Stem;
},
{
origin = (1,5);
target = (1,24);
type = Stem;
}
);
layerId = "96BAD94E-03AB-4BFE-BD4B-F66579697E6B";
name = "e_t ligature";
shapes = (
{
closed = 1;
nodes = (
(181,556,o),
(178,577,o),
(172,580,cs),
(164,584,o),
(25,500,o),
(25,490,cs),
(25,478,o),
(71,496,o),
(71,437,cs),
(71,215,ls),
(71,179,o),
(57,158,o),
(71,158,cs),
(84,158,o),
(173,235,o),
(220,316,c),
(220,161,o),
(214,143,o),
(220,143,cs),
(235,143,o),
(304,153,o),
(372,193,cs),
(432,228,o),
(483,277,o),
(483,318,cs),
(483,685,ls),
(483,696,o),
(480,717,o),
(474,720,cs),
(466,724,o),
(327,640,o),
(327,630,cs),
(327,618,o),
(373,636,o),
(373,577,cs),
(373,280,l),
(373,225,o),
(341,193,o),
(330,193,c),
(330,413,ls),
(330,428,o),
(319,435,o),
(311,435,cs),
(286,435,o),
(264,397,o),
(181,302,c),
(181,545,ls)
);
},
{
closed = 1;
nodes = (
(642,494,o),
(639,518,o),
(631,518,cs),
(620,518,o),
(583,469,o),
(532,413,cs),
(502,380,o),
(476,350,o),
(450,336,c),
(460,316,l),
(488,338,o),
(518,369,o),
(529,369,cs),
(552,369,o),
(554,215,o),
(448,110,cs),
(345,9,o),
(198,-43,o),
(198,-53,cs),
(199,-67,o),
(497,14,o),
(592,169,cs),
(639,246,o),
(642,388,o),
(642,441,cs)
);
}
);
width = 670;
}
);
unicode = 38;
},
{
glyphname = ampersand.salt;
lastChange = "2024-05-21 10:14:47 +0000";
layers = (
{
hints = (
{
horizontal = 1;
origin = (1,3);
target = (1,9);
type = Stem;
},
{
horizontal = 1;
origin = (0,20);
target = (0,45);
type = Stem;
},
{
origin = (0,23);
target = (0,42);
type = Stem;
},
{
origin = (0,2);
target = (0,17);
type = Stem;
},
{
origin = (0,26);
target = (0,39);
type = Stem;
},
{
horizontal = 1;
origin = (0,29);
target = (0,36);
type = Stem;
},
{
horizontal = 1;
origin = (0,5);
target = (0,14);
type = Stem;
}
);
layerId = m01;
shapes = (
{
closed = 1;
nodes = (
(213,727,o),
(119,615,o),
(119,520,cs),
(119,354,o),
(389,-90,o),
(522,-90,cs),
(541,-90,o),
(627,-82,o),
(664,-12,cs),
(671,2,o),
(665,2,o),
(656,-6,cs),
(641,-20,o),
(620,-35,o),
(602,-35,cs),
(517,-35,o),
(209,381,o),
(209,593,cs),
(209,663,o),
(243,684,o),
(276,684,cs),
(337,684,o),
(402,615,o),
(402,570,cs),
(402,463,o),
(23,306,o),
(23,108,cs),
(23,-13,o),
(124,-42,o),
(227,-42,cs),
(422,-42,o),
(583,106,o),
(541,377,c),
(495,371,l),
(516,199,o),
(443,13,o),
(295,13,cs),
(218,13,o),
(146,47,o),
(146,167,cs),
(146,378,o),
(496,486,o),
(496,637,cs),
(496,720,o),
(389,727,o),
(354,727,cs)
);
},
{
closed = 1;
nodes = (
(412,403,o),
(352,350,o),
(363,351,cs),
(577,374,ls),
(589,375,o),
(647,406,o),
(656,445,cs),
(658,452,o),
(631,425,o),
(577,420,cs),
(440,406,ls)
);
}
);
width = 680;
},
{
associatedMasterId = m01;
hints = (
{
origin = (0,18);
target = (0,39);
type = Stem;
},
{
origin = (0,9);
target = (0,46);
type = Stem;
},
{
origin = (0,21);
target = (0,25);
type = Stem;
},
{
origin = (1,5);
target = (1,24);
type = Stem;
}
);
layerId = "8B968990-6BB1-40D6-B205-40DB16AFA5E9";
name = ref;
shapes = (
{
closed = 1;
nodes = (
(181,556,o),
(178,577,o),
(172,580,cs),
(164,584,o),
(25,500,o),
(25,490,cs),
(25,478,o),
(71,496,o),
(71,437,cs),
(71,215,ls),
(71,179,o),
(57,158,o),
(71,158,cs),
(84,158,o),
(173,235,o),
(220,316,c),
(220,161,o),
(214,143,o),
(220,143,cs),
(235,143,o),
(304,153,o),
(372,193,cs),
(432,228,o),
(483,277,o),
(483,318,cs),
(483,685,ls),
(483,696,o),
(480,717,o),
(474,720,cs),
(466,724,o),
(327,640,o),
(327,630,cs),
(327,618,o),
(373,636,o),
(373,577,cs),
(373,280,l),
(373,225,o),
(341,193,o),
(330,193,c),
(330,413,ls),
(330,428,o),
(319,435,o),
(311,435,cs),
(286,435,o),
(264,397,o),
(181,302,c),
(181,545,ls)
);
},
{
closed = 1;
nodes = (
(642,494,o),
(639,518,o),
(631,518,cs),
(620,518,o),
(583,469,o),
(532,413,cs),
(502,380,o),
(476,350,o),
(450,336,c),
(460,316,l),
(488,338,o),
(518,369,o),
(529,369,cs),
(552,369,o),
(554,215,o),
(448,110,cs),
(345,9,o),
(198,-43,o),
(198,-53,cs),
(199,-67,o),
(497,14,o),
(592,169,cs),
(639,246,o),
(642,388,o),
(642,441,cs)
);
}
);
width = 670;
},
{
associatedMasterId = m01;
hints = (
{
horizontal = 1;
origin = (1,3);
target = (1,9);
type = Stem;
},
{
horizontal = 1;
origin = (0,27);
target = (0,6);
type = Stem;
},
{
origin = (0,30);
target = (0,3);
type = Stem;
},
{
origin = (0,9);
target = (0,24);
type = Stem;
},
{
origin = (2,3);
target = (2,16);
type = Stem;
},
{
horizontal = 1;
origin = (2,6);
target = (2,13);
type = Stem;
},
{
horizontal = 1;
origin = (0,12);
target = (0,21);
type = Stem;
}
);
layerId = "7129B20A-E60B-4F5C-B6FA-D2FB31213B6C";
name = backup;
shapes = (
{
closed = 1;
nodes = (
(244,334,l),
(347,447,o),
(486,532,o),
(486,637,cs),
(486,720,o),
(379,727,o),
(344,727,cs),
(203,727,o),
(109,615,o),
(109,520,cs),
(109,354,o),
(379,-28,o),
(512,-28,cs),
(531,-28,o),
(617,-20,o),
(654,50,cs),
(661,64,o),
(655,64,o),
(646,56,cs),
(631,42,o),
(610,27,o),
(592,27,cs),
(507,27,o),
(199,381,o),
(199,593,cs),
(199,663,o),
(233,684,o),
(266,684,cs),
(327,684,o),
(392,615,o),
(392,570,cs),
(392,515,o),
(323,446,o),
(225,366,c)
);
},
{
closed = 1;
nodes = (
(402,403,o),
(342,350,o),
(353,351,cs),
(567,374,ls),
(579,375,o),
(637,406,o),
(646,445,cs),
(648,452,o),
(621,425,o),
(567,420,cs),
(430,406,ls)
);
},
{
closed = 1;
nodes = (
(174,382,l),
(83,306,o),
(13,204,o),
(13,108,cs),
(13,-13,o),
(155,-45,o),
(258,-45,cs),
(453,-45,o),
(560,69,o),
(504,374,c),
(485,371,l),
(510,148,o),
(474,10,o),
(326,10,cs),
(249,10,o),
(136,47,o),
(136,167,cs),
(136,231,o),
(149,301,o),
(193,350,c)
);
}
);
width = 670;
}
);
},
{
glyphname = dollar;
lastChange = "2024-05-21 10:28:23 +0000";
layers = (
{
hints = (
{
origin = (0,11);
target = (0,18);
type = Stem;
},
{
horizontal = 1;
origin = (0,8);
target = (0,21);
type = Stem;
},
{
horizontal = 1;
origin = (0,15);
target = (0,14);
type = Stem;
},
{
horizontal = 1;
origin = (1,6);
target = (1,13);
type = Stem;
}
);
layerId = m01;
shapes = (
{
closed = 1;
nodes = (
(154,648,o),
(64,583,o),
(33,514,cs),
(19,481,o),
(32,480,o),
(51,508,cs),
(87,559,o),
(159,595,o),
(235,595,cs),
(352,595,o),
(393,508,o),
(393,402,cs),
(393,246,o),
(303,206,o),
(227,206,c),
(227,159,l),
(306,159,o),
(503,207,o),
(503,412,cs),
(503,559,o),
(402,648,o),
(268,648,cs)
);
},
{
closed = 1;
nodes = (
(77,368,o),
(43,323,o),
(43,315,cs),
(43,309,o),
(66,313,o),
(104,313,c),
(281,313,l),
(293,313,o),
(333,352,o),
(345,368,cs),
(350,375,o),
(316,368,o),
(303,368,c),
(83,368,l)
);
},
{
piece = {
Height = -51.66084;
"bottomSerif-length" = -40;
"topSerif-flatness" = 100;
};
pos = (132,2);
ref = _smart.vBar;
}
);
width = 540;
}
);
unicode = 36;
},
{
glyphname = tildecomb;
lastChange = "2024-05-21 06:49:35 +0000";
layers = (
{
anchors = (
{
name = _top;
pos = (150,640);
}
);
layerId = m01;
shapes = (
{
closed = 1;
nodes = (
(30,723,o),
(32,717,o),
(44,729,cs),
(56,740,o),
(86,761,o),
(99,761,cs),
(120,761,o),
(140,708,o),
(177,708,cs),
(216,708,o),
(283,766,o),
(293,796,cs),
(295,802,o),
(294,804,o),
(287,797,cs),
(271,782,o),
(227,756,o),
(215,756,cs),
(195,756,o),
(160,822,o),
(128,822,cs),
(101,822,o),
(56,773,o),
(39,740,cs)
);
}
);
width = 300;
}
);
unicode = 771;
},
{
glyphname = macroncomb;
lastChange = "2024-05-21 06:12:57 +0000";
layers = (
{
anchors = (
{
name = _top;
pos = (150,640);
}
);
hints = (
{
horizontal = 1;
origin = (0,3);
target = (0,10);
type = Stem;
}
);
layerId = m01;
shapes = (
{
closed = 1;
nodes = (
(46,808,o),
(40,753,o),
(51,753,cs),
(229,753,l),
(241,753,o),
(248,788,o),
(248,804,cs),
(248,813,o),
(225,808,o),
(176,808,c),
(57,808,ls)
);
}
);
width = 300;
}
);
unicode = 772;
},
{
glyphname = grave;
lastChange = "2024-05-21 06:48:38 +0000";
layers = (
{
anchors = (
{
name = _top;
pos = (166,640);
}
);
layerId = m01;
shapes = (
{
closed = 1;
nodes = (
(235,747,o),
(110,841,o),
(103,841,cs),
(96,841,o),
(44,804,o),
(44,798,cs),
(44,791,o),
(215,732,o),
(225,732,cs),
(229,732,o),
(235,736,o),
(235,740,cs)
);
}
);
width = 300;
}
);
unicode = 96;
},
{
glyphname = acute;
lastChange = "2024-05-21 06:41:18 +0000";
layers = (
{
anchors = (
{
name = _top;
pos = (149,640);
}
);
layerId = m01;
shapes = (
{
closed = 1;
nodes = (
(75,736,o),
(81,732,o),
(85,732,cs),
(95,732,o),
(247,792,o),
(247,798,cs),
(247,804,o),
(214,841,o),
(207,841,cs),
(200,841,o),
(75,747,o),
(75,740,cs)
);
}
);
width = 300;
}
);
unicode = 180;
},
{
glyphname = hungarumlaut;
lastChange = "2024-05-21 06:28:18 +0000";
layers = (
{
anchors = (
{
name = _top;
pos = (127,640);
}
);
layerId = m01;
shapes = (
{
closed = 1;
nodes = (
(55,747,o),
(99,841,o),
(106,841,cs),
(113,841,o),
(155,820,o),
(155,814,cs),
(155,808,o),
(75,732,o),
(65,732,cs),
(61,732,o),
(55,736,o),
(55,740,cs)
);
},
{
closed = 1;
nodes = (
(151,747,o),
(195,841,o),
(202,841,cs),
(209,841,o),
(251,820,o),
(251,814,cs),
(251,808,o),
(171,732,o),
(161,732,cs),
(157,732,o),
(151,736,o),
(151,740,cs)
);
}
);
width = 300;
}
);
unicode = 733;
},
{
glyphname = circumflex;
lastChange = "2024-05-21 05:18:39 +0000";
layers = (
{
anchors = (
{
name = _top;
pos = (154,640);
}
);
layerId = m01;
shapes = (
{
closed = 1;
nodes = (
(58,732,o),
(101,753,o),
(134,772,c),
(169,760,o),
(242,732,o),
(248,732,cs),
(251,732,o),
(256,736,o),
(256,740,cs),
(256,747,o),
(155,816,o),
(150,816,cs),
(145,816,o),
(44,747,o),
(44,740,cs),
(44,736,o),
(49,732,o),
(52,732,cs)
);
}
);
width = 300;
}
);
unicode = 710;
},
{
glyphname = caron;
lastChange = "2024-05-21 05:06:55 +0000";
layers = (
{
anchors = (
{
name = _top;
pos = (150,640);
}
);
layerId = m01;
shapes = (
{
closed = 1;
nodes = (
(49,831,o),
(44,827,o),
(44,823,cs),
(44,816,o),
(130,722,o),
(135,722,cs),
(140,722,o),
(256,816,o),
(256,823,cs),
(256,827,o),
(251,831,o),
(248,831,cs),
(242,831,o),
(202,802,o),
(150,764,c),
(98,807,o),
(58,831,o),
(52,831,cs)
);
}
);
width = 300;
}
);
unicode = 711;
},
{
glyphname = breve;
lastChange = "2024-05-21 04:55:38 +0000";
layers = (
{
anchors = (
{
name = _top;
pos = (150,640);
}
);
layerId = m01;
shapes = (
{
closed = 1;
nodes = (
(49,831,o),
(44,827,o),
(44,824,cs),
(44,816,o),
(84,722,o),
(148,722,cs),
(211,722,o),
(256,816,o),
(256,824,cs),
(256,827,o),
(251,831,o),
(249,831,cs),
(242,831,o),
(217,764,o),
(150,764,cs),
(83,764,o),
(58,831,o),
(51,831,cs)
);
}
);
width = 300;
}
);
unicode = 728;
},
{
glyphname = ring;
lastChange = "2024-05-21 05:13:14 +0000";
layers = (
{
anchors = (
{
name = _top;
pos = (150,640);
}
);
layerId = m01;
shapes = (
{
closed = 1;
nodes = (
(176,714,o),
(198,737,o),
(198,765,cs),
(198,793,o),
(176,815,o),
(148,815,cs),
(120,815,o),
(97,793,o),
(97,765,cs),
(97,737,o),
(120,714,o),
(148,714,cs)
);
},
{
closed = 1;
nodes = (
(131,731,o),
(122,742,o),
(122,765,cs),
(122,787,o),
(131,798,o),
(148,798,cs),
(164,798,o),
(173,787,o),
(173,765,cs),
(173,742,o),
(164,731,o),
(148,731,cs)
);
}
);
width = 300;
}
);
unicode = 730;
},
{
glyphname = cedilla;
lastChange = "2024-05-21 06:59:25 +0000";
layers = (
{
anchors = (
{
name = _ogonek;
pos = (87,0);
}
);
layerId = m01;
shapes = (
{
closed = 1;
nodes = (
(38,-49,o),
(19,-89,o),
(19,-93,cs),
(19,-103,o),
(123,-111,o),
(123,-152,cs),
(123,-180,o),
(73,-203,o),
(58,-217,cs),
(41,-233,o),
(49,-232,o),
(65,-226,cs),
(120,-206,o),
(183,-172,o),
(183,-134,cs),
(183,-102,o),
(138,-85,o),
(73,-88,c),
(87,-73,o),
(143,-7,o),
(154,22,c),
(55,0,l)
);
}
);
width = 300;
}
);
unicode = 184;
},
{
glyphname = ogonek;
lastChange = "2024-05-21 06:18:17 +0000";
layers = (
{
anchors = (
{
name = _ogonek;
pos = (97,13);
}
);
layerId = m01;
shapes = (
{
closed = 1;
nodes = (
(46,-22,o),
(0,-57,o),
(0,-83,cs),
(0,-122,o),
(56,-161,o),
(130,-166,cs),
(167,-168,o),
(168,-159,o),
(142,-147,cs),
(97,-128,o),
(65,-87,o),
(65,-65,cs),
(65,-48,o),
(83,-29,o),
(120,0,c),
(103,24,l)
);
}
);
width = 300;
}
);
unicode = 731;
},
{
export = 0;
glyphname = _part.asterisk;
lastChange = "2024-05-21 05:38:07 +0000";
layers = (
{
anchors = (
{
name = origin;
}
);
layerId = m01;
shapes = (
{
closed = 1;
nodes = (
(-26,64,o),
(-61,181,o),
(-51,191,cs),
(-47,195,o),
(46,195,o),
(50,191,cs),
(60,181,o),
(25,64,o),
(13,0,c),
(-14,0,l)
);
}
);
width = 600;
}
);
},
{
export = 0;
glyphname = _part.brace;
lastChange = "2024-05-21 08:59:50 +0000";
layers = (
{
layerId = m01;
shapes = (
{
closed = 1;
nodes = (
(253,643,o),
(198,578,o),
(198,481,cs),
(198,371,o),
(141,339,o),
(95,327,c),
(95,320,l),
(198,320,l),
(266,356,o),
(295,385,o),
(295,520,cs),
(295,520,o),
(295,628,o),
(352,676,cs),
(371,692,o),
(365,699,o),
(328,681,cs)
);
}
);
width = 400;
}
);
},
{
export = 0;
glyphname = _part.bracket;
lastChange = "2024-05-21 09:03:51 +0000";
layers = (
{
layerId = m01;
shapes = (
{
closed = 1;
nodes = (
(179,694,l),
(179,320,l),
(289,320,l),
(289,659,l),
(352,659,l),
(358,659,o),
(380,694,o),
(371,694,c)
);
}
);
width = 400;
}
);
},
{
export = 0;
glyphname = _part.dotaccent;
lastChange = "2024-05-21 04:46:29 +0000";
layers = (
{
layerId = m01;
shapes = (
{
closed = 1;
nodes = (
(25,776,o),
(36,777,o),
(43,769,cs),
(51,762,o),
(54,750,o),
(67,750,cs),
(84,750,o),
(87,764,o),
(92,769,cs),
(96,773,o),
(107,780,o),
(107,795,cs),
(107,810,o),
(90,810,o),
(87,814,cs),
(82,819,o),
(83,834,o),
(65,834,cs),
(49,834,o),
(48,816,o),
(43,812,cs),
(39,808,o),
(25,801,o),
(25,790,cs)
);
}
);
width = 132;
}
);
},
{
export = 0;
glyphname = _part.guilsingl;
lastChange = "2024-05-21 09:07:26 +0000";
layers = (
{
layerId = m01;
shapes = (
{
closed = 1;
nodes = (
(300,459,o),
(174,367,o),
(110,320,c),
(212,320,l),
(294,376,o),
(377,443,o),
(377,452,cs),
(377,456,o),
(346,459,o),
(330,459,cs)
);
}
);
width = 400;
}
);
},
{
export = 0;
glyphname = _part.paren;
lastChange = "2024-05-21 08:53:45 +0000";
layers = (
{
layerId = m01;
shapes = (
{
closed = 1;
nodes = (
(122,346,o),
(0,231,o),
(0,0,c),
(110,0,l),
(110,215,o),
(158,326,o),
(184,366,cs),
(190,376,o),
(186,379,o),
(177,374,cs)
);
}
);
width = 203;
}
);
},
{
export = 0;
glyphname = _part.tick;
lastChange = "2024-05-19 21:23:01 +0000";
layers = (
{
anchors = (
{
name = _tick;
pos = (0,-35);
},
{
name = tail;
pos = (190,108);
}
);
layerId = m01;
partSelection = {
tail = 1;
};
shapes = (
{
closed = 1;
nodes = (
(0,-35,l),
(22,-35,o),
(156,56,o),
(197,104,cs),
(206,115,o),
(202,121,o),
(186,112,cs),
(134,83,o),
(102,61,o),
(0,0,c)
);
}
);
width = 202;
},
{
anchors = (
{
name = _tick;
pos = (0,-35);
},
{
name = tail;
pos = (246,159);
}
);
associatedMasterId = m01;
layerId = "71702FEA-6708-4C7C-B884-6246546954FA";
name = longerTail;
partSelection = {
tail = 2;
};
shapes = (
{
closed = 1;
nodes = (
(0,-35,l),
(48,-35,o),
(212,89,o),
(252,159,cs),
(258,170,o),
(256,178,o),
(243,165,cs),
(161,81,o),
(83,40,o),
(0,0,c)
);
}
);
width = 202;
}
);
locked = 1;
partsSettings = (
{
bottomValue = 0;
name = tail;
topValue = 100;
}
);
},
{
export = 0;
glyphname = _smart.hBar;
lastChange = "2024-05-19 21:23:01 +0000";
layers = (
{
anchors = (
{
name = left;
pos = (0,11);
},
{
name = right;
pos = (150,11);
},
{
name = "rightSerif-length";
pos = (182,35);
}
);
hints = (
{
horizontal = 1;
origin = (0,6);
target = (0,13);
type = Stem;
}
);
layerId = m01;
partSelection = {
Width = 1;
"leftSerif-sharpness" = 1;
"leftSerif-flatness" = 1;
"leftSerif-height" = 1;
"rightSerif-sharpness" = 1;
"rightSerif-flatness" = 1;
"rightSerif-length" = 1;
};
shapes = (
{
closed = 1;
nodes = (
(38,39,o),
(36,48,o),
(29,48,cs),
(22,48,o),
(-69,-16,o),
(-49,-16,c),
(118,-16,l),
(130,-16,o),
(180,19,o),
(192,35,cs),
(197,42,o),
(163,39,o),
(150,39,c),
(46,39,l)
);
}
);
width = 150;
},
{
anchors = (
{
name = left;
pos = (0,11);
},
{
name = right;
pos = (450,11);
},
{
name = "rightSerif-length";
pos = (482,35);
}
);
associatedMasterId = m01;
hints = (
{
horizontal = 1;
origin = (0,6);
target = (0,13);
type = Stem;
}
);
layerId = "C2BA6DB0-01A5-4FBD-BB1D-5E2EA9F6860E";
name = long;
partSelection = {
Width = 2;
};
shapes = (
{
closed = 1;
nodes = (
(38,39,o),
(36,48,o),
(29,48,cs),
(22,48,o),
(-69,-16,o),
(-49,-16,c),
(418,-16,l),
(430,-16,o),
(480,19,o),
(492,35,cs),
(497,42,o),
(463,39,o),
(450,39,c),
(46,39,l)
);
}
);
width = 450;
},
{
anchors = (
{
name = left;
pos = (0,11);
},
{
name = right;
pos = (150,11);
},
{
name = "rightSerif-length";
pos = (182,35);
}
);
associatedMasterId = m01;
hints = (
{
horizontal = 1;
origin = (0,6);
target = (0,13);
type = Stem;
}
);
layerId = "2FEEF0EC-F10C-4625-8D22-EDFE3BF9ECBC";
name = "leftSerif-sharp";
partSelection = {
"leftSerif-sharpness" = 2;
};
shapes = (
{
closed = 1;
nodes = (
(46,39,o),
(22,39,o),
(22,39,cs),
(22,39,o),
(-49,-16,o),
(-49,-16,c),
(118,-16,l),
(130,-16,o),
(180,19,o),
(192,35,cs),
(197,42,o),
(163,39,o),
(150,39,c),
(46,39,l)
);
}
);
width = 150;
},
{
anchors = (
{
name = left;
pos = (0,11);
},
{
name = right;
pos = (150,11);
},
{
name = "rightSerif-length";
pos = (182,35);
}
);
associatedMasterId = m01;
hints = (
{
horizontal = 1;
origin = (0,6);
target = (0,13);
type = Stem;
}
);
layerId = "5A5151A3-C311-4467-8E15-85BC6ABB1779";
name = "leftSerif-flat";
partSelection = {
"leftSerif-flatness" = 2;
};
shapes = (
{
closed = 1;
nodes = (
(46,39,o),
(0,39,o),
(0,39,cs),
(0,39,o),
(0,-16,o),
(0,-16,c),
(118,-16,l),
(130,-16,o),
(180,19,o),
(192,35,cs),
(197,42,o),
(163,39,o),
(150,39,c),
(46,39,l)
);
}
);
width = 150;
},
{
anchors = (
{
name = left;
pos = (0,11);
},
{
name = right;
pos = (150,11);
},
{
name = "rightSerif-length";
pos = (182,35);
}
);
associatedMasterId = m01;
hints = (
{
horizontal = 1;
origin = (0,6);
target = (0,13);
type = Stem;
}
);
layerId = "CA2A8F6C-A1B6-4C04-B853-78FDD1C91739";
name = "leftSerif-tall";
partSelection = {
"leftSerif-height" = 2;
};
shapes = (
{
closed = 1;
nodes = (
(36,39,o),
(23,62,o),
(18,62,cs),
(4,62,o),
(-121,-16,o),
(-84,-16,c),
(118,-16,l),
(130,-16,o),
(180,19,o),
(192,35,cs),
(197,42,o),
(163,39,o),
(150,39,c),
(46,39,l)
);
}
);
width = 150;
},
{
anchors = (
{
name = left;
pos = (0,11);
},
{
name = right;
pos = (150,11);
},
{
name = "rightSerif-length";
pos = (182,35);
}
);
associatedMasterId = m01;
hints = (
{
horizontal = 1;
origin = (0,6);
target = (0,13);
type = Stem;
}
);
layerId = "EE3EDC08-F854-4699-8923-D589EFD26807";
name = "rightSerif-sharp";
partSelection = {
"rightSerif-sharpness" = 2;
};
shapes = (
{
closed = 1;
nodes = (
(38,39,o),
(36,48,o),
(29,48,cs),
(22,48,o),
(-69,-16,o),
(-49,-16,c),
(118,-16,l),
(118,-16,o),
(192,39,o),
(192,39,cs),
(192,39,o),
(163,39,o),
(150,39,c),
(46,39,l)
);
}
);
width = 150;
},
{
anchors = (
{
name = left;
pos = (0,11);
},
{
name = right;
pos = (150,11);
},
{
name = "rightSerif-length";
pos = (182,35);
}
);
associatedMasterId = m01;
hints = (
{
horizontal = 1;
origin = (0,6);
target = (0,13);
type = Stem;
}
);
layerId = "4FA916AE-EAF6-40ED-9FDE-446E331638DD";
name = "rightSerif-flat";
partSelection = {
"rightSerif-flatness" = 2;
};
shapes = (
{
closed = 1;
nodes = (
(38,39,o),
(36,48,o),
(29,48,cs),
(22,48,o),
(-69,-16,o),
(-49,-16,c),
(150,-16,l),
(150,-16,o),
(150,39,o),
(150,39,cs),
(150,39,o),
(140,39,o),
(140,39,c),
(46,39,l)
);
}
);
width = 150;
},
{
anchors = (
{
name = left;
pos = (0,11);
},
{
name = right;
pos = (150,11);
},
{
name = "rightSerif-length";
pos = (344,293);
}
);
associatedMasterId = m01;
hints = (
{
horizontal = 1;
origin = (0,6);
target = (0,13);
type = Stem;
}
);
layerId = "8C59CA17-E023-4F31-812B-52E78E948AA7";
name = "rightSerif-long";
partSelection = {
"rightSerif-length" = 2;
};
shapes = (
{
closed = 1;
nodes = (
(38,39,o),
(36,48,o),
(29,48,cs),
(22,48,o),
(-69,-16,o),
(-49,-16,c),
(197,-16,l),
(227,-16,o),
(363,309,o),
(351,309,cs),
(327,309,o),
(186,39,o),
(105,39,c),
(46,39,l)
);
}
);
width = 150;
}
);
locked = 1;
partsSettings = (
{
bottomValue = 0;
name = Width;
topValue = 100;
},
{
bottomValue = 0;
name = "leftSerif-sharpness";
topValue = 100;
},
{
bottomValue = 0;
name = "leftSerif-flatness";
topValue = 100;
},
{
bottomValue = 0;
name = "leftSerif-height";
topValue = 100;
},
{
bottomValue = 0;
name = "rightSerif-sharpness";
topValue = 100;
},
{
bottomValue = 0;
name = "rightSerif-flatness";
topValue = 100;
},
{
bottomValue = 0;
name = "rightSerif-length";
topValue = 100;
}
);
},
